<svg width="761" height="461" xmlns="http://www.w3.org/2000/svg"><g id="Schemas" stroke="none" stroke-width="1" fill="none" fill-rule="evenodd"><path id="background" fill="#0E1320" d="M-360-1612h1499v2876H-360z"/><g id="Group-5"><g id="tiles/blue" transform="translate(416 180)"><rect id="Rectangle-7" stroke="#29AFFF" fill="#115984" x=".492" y=".5" width="226" height="101" rx="5"/><g id="Content" transform="translate(-.008 46.9)"><path d="M0 0h225v48.992A5.008 5.008 0 0 1 219.998 54H5.002A5 5 0 0 1 0 48.992V0Z" id="Rectangle-7" fill="#1978B1"/><text fill-rule="nonzero" font-family="Roboto-Bold, Roboto" font-size="18" font-weight="bold" letter-spacing=".3" fill="#0A273E">
                        <tspan x="40.258" y="32.503">Placement Group</tspan>
                    </text></g><text id="Tilte" fill-rule="nonzero" font-family="Roboto-Bold, Roboto" font-size="21" font-weight="bold" letter-spacing=".3" fill="#031522">
                    <tspan x="89.383" y="31.517">PG 2</tspan>
                </text></g><g id="tiles/color5/notitle" transform="translate(427)"><rect id="Rectangle-7" stroke="#C1E3F5" fill="#7CB3D0" x=".5" y=".5" width="98" height="45" rx="5"/><text id="Content" fill-rule="nonzero" font-family="Roboto-Bold, Roboto" font-size="21" font-weight="bold" letter-spacing=".3" fill="#1B2A32">
                    <tspan x="18.021" y="29.827">Object</tspan>
                </text></g><g id="tiles/color5/notitle" transform="translate(544)"><rect id="Rectangle-7" stroke="#C1E3F5" fill="#7CB3D0" x=".5" y=".5" width="98" height="45" rx="5"/><text id="Content" fill-rule="nonzero" font-family="Roboto-Bold, Roboto" font-size="21" font-weight="bold" letter-spacing=".3" fill="#1B2A32">
                    <tspan x="18.021" y="29.827">Object</tspan>
                </text></g><g id="tiles/color5/notitle" transform="translate(661)"><rect id="Rectangle-7" stroke="#C1E3F5" fill="#7CB3D0" x=".5" y=".5" width="98" height="45" rx="5"/><text id="Content" fill-rule="nonzero" font-family="Roboto-Bold, Roboto" font-size="21" font-weight="bold" letter-spacing=".3" fill="#1B2A32">
                    <tspan x="18.021" y="29.827">Object</tspan>
                </text></g><g id="Group" transform="translate(473 52)" stroke="#C7E6FF"><g id="arrows/arrow-4.1" transform="rotate(-90 59.5 61)"><g id="arrow-4.1" transform="translate(.983 .968)"><path d="M117.033 3H70c-5.523 0-10 4.471-10 9.997v94.069c0 5.521 4.475 9.997 10 9.997h47.033" id="Path-4" stroke-width="2"/><circle id="Oval--Copy-3" fill="#C7E6FF" cx="114.033" cy="117.063" r="3"/><path id="Path-5" stroke-width="2" d="M60.523 60.032H1.004"/><path id="Triangle-2-Copy-2" fill="#C7E6FF" stroke-linejoin="round" transform="rotate(-180 1.5 60.032)" d="M0 63.032v-6l3 3z"/><circle id="Oval--Copy-3" fill="#C7E6FF" cx="114.033" cy="3" r="3"/></g></g></g><g id="Group" transform="translate(317.5 183.5)" stroke="#C7E6FF"><g id="arrows/arrow-4.1" transform="rotate(-90 59.5 163.5)"><g id="arrow-4.1" transform="translate(.983 2.595)"><path d="M117.033 3H70c-5.523 0-10 4.48-10 9.995v295.82c0 5.52 4.475 9.995 10 9.995h47.033" id="Path-4" stroke-width="2"/><circle id="Oval--Copy-3" fill="#C7E6FF" cx="114.033" cy="318.81" r="3"/><path id="Path-5" stroke-width="2" d="M60.523 160.905H1.004"/><path id="Triangle-2-Copy-2" fill="#C7E6FF" stroke-linejoin="round" transform="rotate(-180 1.5 160.905)" d="M0 163.905v-6l3 3z"/><circle id="Oval--Copy-3" fill="#C7E6FF" cx="114.033" cy="3" r="3"/></g></g></g><g id="Group" transform="translate(600 3)" stroke="#C7E6FF" stroke-width="2"><g id="arrows/arrow-2.1" transform="rotate(-90 30 80)"><g id="arrow-2.1" transform="translate(1.463)"><path d="M0 0v145.47c0 5.517 4.477 9.99 10.002 9.99H57.05" id="Path-2"/><circle id="Oval-R" fill="#C7E6FF" cx="55.549" cy="154.96" r="2.5"/></g></g></g><g id="tiles/color5/notitle"><rect id="Rectangle-7" stroke="#C1E3F5" fill="#7CB3D0" x=".5" y=".5" width="98" height="45" rx="5"/><text id="Content" fill-rule="nonzero" font-family="Roboto-Bold, Roboto" font-size="21" font-weight="bold" letter-spacing=".3" fill="#1B2A32">
                    <tspan x="18.021" y="29.827">Object</tspan>
                </text></g><g id="Group" transform="translate(94 3)" stroke="#C7E6FF" stroke-width="2"><g id="arrows/arrow-2.1" transform="matrix(0 -1 -1 0 110 110)"><g id="arrow-2.1" transform="translate(1.463)"><path d="M0 0v145.47c0 5.517 4.477 9.99 10.002 9.99H57.05" id="Path-2"/><circle id="Oval-R" fill="#C7E6FF" cx="55.549" cy="154.96" r="2.5"/></g></g></g><g id="tiles/blue" transform="translate(106 180)"><rect id="Rectangle-7" stroke="#29AFFF" fill="#115984" x=".492" y=".5" width="226" height="101" rx="5"/><g id="Content" transform="translate(-.008 46.9)"><path d="M0 0h225v48.992A5.008 5.008 0 0 1 219.998 54H5.002A5 5 0 0 1 0 48.992V0Z" id="Rectangle-7" fill="#1978B1"/><text fill-rule="nonzero" font-family="Roboto-Bold, Roboto" font-size="18" font-weight="bold" letter-spacing=".3" fill="#0A273E">
                        <tspan x="40.258" y="32.503">Placement Group</tspan>
                    </text></g><text id="Tilte" fill-rule="nonzero" font-family="Roboto-Bold, Roboto" font-size="21" font-weight="bold" letter-spacing=".3" fill="#031522">
                    <tspan x="89.383" y="31.517">PG 1</tspan>
                </text></g><g id="tiles/color5/notitle" transform="translate(117)"><rect id="Rectangle-7" stroke="#C1E3F5" fill="#7CB3D0" x=".5" y=".5" width="98" height="45" rx="5"/><text id="Content" fill-rule="nonzero" font-family="Roboto-Bold, Roboto" font-size="21" font-weight="bold" letter-spacing=".3" fill="#1B2A32">
                    <tspan x="18.021" y="29.827">Object</tspan>
                </text></g><g id="tiles/color5/notitle" transform="translate(234)"><rect id="Rectangle-7" stroke="#C1E3F5" fill="#7CB3D0" x=".5" y=".5" width="98" height="45" rx="5"/><text id="Content" fill-rule="nonzero" font-family="Roboto-Bold, Roboto" font-size="21" font-weight="bold" letter-spacing=".3" fill="#1B2A32">
                    <tspan x="18.021" y="29.827">Object</tspan>
                </text></g><g id="Group" transform="translate(163 52)" stroke="#C7E6FF"><g id="arrows/arrow-4.1" transform="rotate(-90 59.5 61)"><g id="arrow-4.1" transform="translate(.983 .968)"><path d="M117.033 3H70c-5.523 0-10 4.471-10 9.997v94.069c0 5.521 4.475 9.997 10 9.997h47.033" id="Path-4" stroke-width="2"/><circle id="Oval--Copy-3" fill="#C7E6FF" cx="114.033" cy="117.063" r="3"/><path id="Path-5" stroke-width="2" d="M60.523 60.032H1.004"/><path id="Triangle-2-Copy-2" fill="#C7E6FF" stroke-linejoin="round" transform="rotate(-180 1.5 60.032)" d="M0 63.032v-6l3 3z"/><circle id="Oval--Copy-3" fill="#C7E6FF" cx="114.033" cy="3" r="3"/></g></g></g><g id="tiles/color2/notitle" transform="translate(249 414)"><text id="Content" fill-rule="nonzero" font-family="RobotoMonoForPowerline-Bold, Roboto Mono for Powerline" font-size="18" font-weight="bold" letter-spacing=".3" fill="#243D3D">
                    <tspan x="89.152" y="29.132">Content</tspan>
                </text><rect id="Rectangle-7" stroke="#8BE5E2" fill="#5FA7A5" x=".5" y=".5" width="255" height="46" rx="5"/><text id="Content-Copy" fill-rule="nonzero" font-family="Roboto-Bold, Roboto" font-size="21" font-weight="bold" letter-spacing=".3" fill="#243D3D">
                    <tspan x="106.044" y="29.401">Pool</tspan>
                </text></g></g></g></svg>