<svg width="912" height="626" xmlns="http://www.w3.org/2000/svg"><g id="Schemas" stroke="none" stroke-width="1" fill="none" fill-rule="evenodd"><path id="Background" fill="#0E1320" d="M-284-161h1499v963H-284z"/><g id="Group-3" transform="translate(1 .5)"><g id="tiles/blue" transform="translate(126 164.5)"><rect id="Rectangle-7" stroke="#29AFFF" fill="#115984" x=".492" y=".5" width="226" height="101" rx="5"/><g id="Content" transform="translate(-.008 46.9)"><path d="M0 0h225v48.992A5.008 5.008 0 0 1 219.998 54H5.002A5 5 0 0 1 0 48.992V0Z" id="Rectangle-7" fill="#1978B1"/><text fill-rule="nonzero" font-family="Roboto-Bold, Roboto" font-size="18" font-weight="bold" letter-spacing=".3" fill="#0A273E">
                        <tspan x="44.17" y="32.503">RADOS Gateway</tspan>
                    </text></g><text id="Tilte" fill-rule="nonzero" font-family="Roboto-Bold, Roboto" font-size="21" font-weight="bold" letter-spacing=".3" fill="#031522">
                    <tspan x="60.868" y="31.517">RADOSGW</tspan>
                </text></g><g id="tiles/blue" transform="translate(405 164.5)"><rect id="Rectangle-7" stroke="#29AFFF" fill="#115984" x=".492" y=".5" width="226" height="101" rx="5"/><g id="Content" transform="translate(-.008 46.9)"><path d="M0 0h225v48.992A5.008 5.008 0 0 1 219.998 54H5.002A5 5 0 0 1 0 48.992V0Z" id="Rectangle-7" fill="#1978B1"/><text fill-rule="nonzero" font-family="Roboto-Bold, Roboto" font-size="18" font-weight="bold" letter-spacing=".3" fill="#0A273E">
                        <tspan x="26.062" y="32.503">RADOS Block Device</tspan>
                    </text></g><text id="Tilte" fill-rule="nonzero" font-family="Roboto-Bold, Roboto" font-size="21" font-weight="bold" letter-spacing=".3" fill="#031522">
                    <tspan x="91.871" y="31.517">RBD</tspan>
                </text></g><g id="tiles/blue-copy" transform="translate(684 164.5)"><rect id="Rectangle-7" stroke="#29AFFF" fill="#115984" x=".492" y=".5" width="226" height="101" rx="5"/><g id="Content" transform="translate(-.008 46.9)"><path d="M0 0h225v48.992A5.008 5.008 0 0 1 219.998 54H5.002A5 5 0 0 1 0 48.992V0Z" id="Rectangle-7" fill="#1978B1"/><text fill-rule="nonzero" font-family="Roboto-Bold, Roboto" font-size="18" font-weight="bold" letter-spacing=".3" fill="#0A273E">
                        <tspan x="39.827" y="32.503">Ceph File System</tspan>
                    </text></g><text id="Tilte" fill-rule="nonzero" font-family="Roboto-Bold, Roboto" font-size="21" font-weight="bold" letter-spacing=".3" fill="#031522">
                    <tspan x="72.471" y="31.517">CEPHFS</tspan>
                </text></g><g id="Group-2" transform="translate(60 438.5)"><g id="Group" transform="translate(-29.5 107.5)"><g id="tiles/color4/notitle" transform="rotate(-90 54 24.5)"><rect id="Rectangle-7" stroke="#F4E8F0" fill="#CABDC6" x=".5" y=".5" width="107" height="48" rx="5"/><text id="Content" fill-rule="nonzero" font-family="RobotoMonoForPowerline-Bold, Roboto Mono for Powerline" font-size="21" font-weight="bold" letter-spacing=".35" fill="#413C40">
                            <tspan x="13.008" y="31.315">OSD</tspan>
                        </text></g></g><g id="harddisk" transform="translate(14 95)" fill="#413C40" fill-rule="nonzero"><path d="M2.5 0h15A2.5 2.5 0 0 1 20 2.5v20a2.5 2.5 0 0 1-2.5 2.5h-15A2.5 2.5 0 0 1 0 22.5v-20A2.5 2.5 0 0 1 2.5 0M10 2.273c-4.248 0-7.692 3.392-7.692 7.575 0 4.18 3.448 7.576 7.82 7.576L9 14.61a1.265 1.265 0 0 1 .474-1.73l1.103-.632a1.306 1.306 0 0 1 1.756.468l2.462 3.055c1.77-1.389 2.897-3.523 2.897-5.922 0-4.183-3.444-7.575-7.692-7.575m.385 6.818c.637 0 1.153.509 1.153 1.136 0 .628-.516 1.137-1.153 1.137a1.145 1.145 0 0 1-1.154-1.137c0-.627.516-1.136 1.154-1.136M3.462 20.455c-.638 0-1.154.508-1.154 1.136 0 .628.516 1.136 1.154 1.136.637 0 1.153-.508 1.153-1.136 0-.628-.516-1.136-1.153-1.136M10 14.248l3.016 7.722 3.138-1.836-5.112-6.498-1.042.612Z" id="Shape"/></g><g id="Group" transform="translate(-11.5 29)" stroke="#C7E6FF" stroke-width="2"><g id="arrows/3" transform="rotate(90 35.5 6.5)"><path id="Line" stroke-linecap="square" d="M1 6.5h68.826"/><circle id="Oval-R" fill="#C7E6FF" cx="67.5" cy="6.5" r="2.5"/><circle id="Oval-L" fill="#C7E6FF" cx="3.5" cy="6.5" r="2.5"/></g></g></g><g id="Group-2-Copy" transform="translate(126 438.5)"><g id="Group" transform="translate(-29.5 107.5)"><g id="tiles/color4/notitle" transform="rotate(-90 54 24.5)"><rect id="Rectangle-7" stroke="#F4E8F0" fill="#CABDC6" x=".5" y=".5" width="107" height="48" rx="5"/><text id="Content" fill-rule="nonzero" font-family="RobotoMonoForPowerline-Bold, Roboto Mono for Powerline" font-size="21" font-weight="bold" letter-spacing=".35" fill="#413C40">
                            <tspan x="13.008" y="31.315">OSD</tspan>
                        </text></g></g><g id="harddisk" transform="translate(14 95)" fill="#413C40" fill-rule="nonzero"><path d="M2.5 0h15A2.5 2.5 0 0 1 20 2.5v20a2.5 2.5 0 0 1-2.5 2.5h-15A2.5 2.5 0 0 1 0 22.5v-20A2.5 2.5 0 0 1 2.5 0M10 2.273c-4.248 0-7.692 3.392-7.692 7.575 0 4.18 3.448 7.576 7.82 7.576L9 14.61a1.265 1.265 0 0 1 .474-1.73l1.103-.632a1.306 1.306 0 0 1 1.756.468l2.462 3.055c1.77-1.389 2.897-3.523 2.897-5.922 0-4.183-3.444-7.575-7.692-7.575m.385 6.818c.637 0 1.153.509 1.153 1.136 0 .628-.516 1.137-1.153 1.137a1.145 1.145 0 0 1-1.154-1.137c0-.627.516-1.136 1.154-1.136M3.462 20.455c-.638 0-1.154.508-1.154 1.136 0 .628.516 1.136 1.154 1.136.637 0 1.153-.508 1.153-1.136 0-.628-.516-1.136-1.153-1.136M10 14.248l3.016 7.722 3.138-1.836-5.112-6.498-1.042.612Z" id="Shape"/></g><g id="Group" transform="translate(-11.5 29)" stroke="#C7E6FF" stroke-width="2"><g id="arrows/3" transform="rotate(90 35.5 6.5)"><path id="Line" stroke-linecap="square" d="M1 6.5h68.826"/><circle id="Oval-R" fill="#C7E6FF" cx="67.5" cy="6.5" r="2.5"/><circle id="Oval-L" fill="#C7E6FF" cx="3.5" cy="6.5" r="2.5"/></g></g></g><g id="Group-2-Copy-2" transform="translate(192 437.5)"><g id="Group" transform="translate(-29.5 107.5)"><g id="tiles/color4/notitle" transform="rotate(-90 54 24.5)"><rect id="Rectangle-7" stroke="#F4E8F0" fill="#CABDC6" x=".5" y=".5" width="107" height="48" rx="5"/><text id="Content" fill-rule="nonzero" font-family="RobotoMonoForPowerline-Bold, Roboto Mono for Powerline" font-size="21" font-weight="bold" letter-spacing=".35" fill="#413C40">
                            <tspan x="13.008" y="31.315">OSD</tspan>
                        </text></g></g><g id="harddisk" transform="translate(14 95)" fill="#413C40" fill-rule="nonzero"><path d="M2.5 0h15A2.5 2.5 0 0 1 20 2.5v20a2.5 2.5 0 0 1-2.5 2.5h-15A2.5 2.5 0 0 1 0 22.5v-20A2.5 2.5 0 0 1 2.5 0M10 2.273c-4.248 0-7.692 3.392-7.692 7.575 0 4.18 3.448 7.576 7.82 7.576L9 14.61a1.265 1.265 0 0 1 .474-1.73l1.103-.632a1.306 1.306 0 0 1 1.756.468l2.462 3.055c1.77-1.389 2.897-3.523 2.897-5.922 0-4.183-3.444-7.575-7.692-7.575m.385 6.818c.637 0 1.153.509 1.153 1.136 0 .628-.516 1.137-1.153 1.137a1.145 1.145 0 0 1-1.154-1.137c0-.627.516-1.136 1.154-1.136M3.462 20.455c-.638 0-1.154.508-1.154 1.136 0 .628.516 1.136 1.154 1.136.637 0 1.153-.508 1.153-1.136 0-.628-.516-1.136-1.153-1.136M10 14.248l3.016 7.722 3.138-1.836-5.112-6.498-1.042.612Z" id="Shape"/></g><g id="Group" transform="translate(-11.5 29)" stroke="#C7E6FF" stroke-width="2"><g id="arrows/3" transform="rotate(90 35.5 6.5)"><path id="Line" stroke-linecap="square" d="M1 6.5h68.826"/><circle id="Oval-R" fill="#C7E6FF" cx="67.5" cy="6.5" r="2.5"/><circle id="Oval-L" fill="#C7E6FF" cx="3.5" cy="6.5" r="2.5"/></g></g></g><g id="Group-2-Copy-3" transform="translate(258 437.5)"><g id="Group" transform="translate(-29.5 107.5)"><g id="tiles/color4/notitle" transform="rotate(-90 54 24.5)"><rect id="Rectangle-7" stroke="#F4E8F0" fill="#CABDC6" x=".5" y=".5" width="107" height="48" rx="5"/><text id="Content" fill-rule="nonzero" font-family="RobotoMonoForPowerline-Bold, Roboto Mono for Powerline" font-size="21" font-weight="bold" letter-spacing=".35" fill="#413C40">
                            <tspan x="13.008" y="31.315">OSD</tspan>
                        </text></g></g><g id="harddisk" transform="translate(14 95)" fill="#413C40" fill-rule="nonzero"><path d="M2.5 0h15A2.5 2.5 0 0 1 20 2.5v20a2.5 2.5 0 0 1-2.5 2.5h-15A2.5 2.5 0 0 1 0 22.5v-20A2.5 2.5 0 0 1 2.5 0M10 2.273c-4.248 0-7.692 3.392-7.692 7.575 0 4.18 3.448 7.576 7.82 7.576L9 14.61a1.265 1.265 0 0 1 .474-1.73l1.103-.632a1.306 1.306 0 0 1 1.756.468l2.462 3.055c1.77-1.389 2.897-3.523 2.897-5.922 0-4.183-3.444-7.575-7.692-7.575m.385 6.818c.637 0 1.153.509 1.153 1.136 0 .628-.516 1.137-1.153 1.137a1.145 1.145 0 0 1-1.154-1.137c0-.627.516-1.136 1.154-1.136M3.462 20.455c-.638 0-1.154.508-1.154 1.136 0 .628.516 1.136 1.154 1.136.637 0 1.153-.508 1.153-1.136 0-.628-.516-1.136-1.153-1.136M10 14.248l3.016 7.722 3.138-1.836-5.112-6.498-1.042.612Z" id="Shape"/></g><g id="Group" transform="translate(-11.5 29)" stroke="#C7E6FF" stroke-width="2"><g id="arrows/3" transform="rotate(90 35.5 6.5)"><path id="Line" stroke-linecap="square" d="M1 6.5h68.826"/><circle id="Oval-R" fill="#C7E6FF" cx="67.5" cy="6.5" r="2.5"/><circle id="Oval-L" fill="#C7E6FF" cx="3.5" cy="6.5" r="2.5"/></g></g></g><g id="Group-2-Copy-4" transform="translate(324 437.5)"><g id="Group" transform="translate(-29.5 107.5)"><g id="tiles/color4/notitle" transform="rotate(-90 54 24.5)"><rect id="Rectangle-7" stroke="#F4E8F0" fill="#CABDC6" x=".5" y=".5" width="107" height="48" rx="5"/><text id="Content" fill-rule="nonzero" font-family="RobotoMonoForPowerline-Bold, Roboto Mono for Powerline" font-size="21" font-weight="bold" letter-spacing=".35" fill="#413C40">
                            <tspan x="13.008" y="31.315">OSD</tspan>
                        </text></g></g><g id="harddisk" transform="translate(14 95)" fill="#413C40" fill-rule="nonzero"><path d="M2.5 0h15A2.5 2.5 0 0 1 20 2.5v20a2.5 2.5 0 0 1-2.5 2.5h-15A2.5 2.5 0 0 1 0 22.5v-20A2.5 2.5 0 0 1 2.5 0M10 2.273c-4.248 0-7.692 3.392-7.692 7.575 0 4.18 3.448 7.576 7.82 7.576L9 14.61a1.265 1.265 0 0 1 .474-1.73l1.103-.632a1.306 1.306 0 0 1 1.756.468l2.462 3.055c1.77-1.389 2.897-3.523 2.897-5.922 0-4.183-3.444-7.575-7.692-7.575m.385 6.818c.637 0 1.153.509 1.153 1.136 0 .628-.516 1.137-1.153 1.137a1.145 1.145 0 0 1-1.154-1.137c0-.627.516-1.136 1.154-1.136M3.462 20.455c-.638 0-1.154.508-1.154 1.136 0 .628.516 1.136 1.154 1.136.637 0 1.153-.508 1.153-1.136 0-.628-.516-1.136-1.153-1.136M10 14.248l3.016 7.722 3.138-1.836-5.112-6.498-1.042.612Z" id="Shape"/></g><g id="Group" transform="translate(-11.5 29)" stroke="#C7E6FF" stroke-width="2"><g id="arrows/3" transform="rotate(90 35.5 6.5)"><path id="Line" stroke-linecap="square" d="M1 6.5h68.826"/><circle id="Oval-R" fill="#C7E6FF" cx="67.5" cy="6.5" r="2.5"/><circle id="Oval-L" fill="#C7E6FF" cx="3.5" cy="6.5" r="2.5"/></g></g></g><g id="Group-2-Copy-5" transform="translate(390 437.5)"><g id="Group" transform="translate(-29.5 107.5)"><g id="tiles/color4/notitle" transform="rotate(-90 54 24.5)"><rect id="Rectangle-7" stroke="#F4E8F0" fill="#CABDC6" x=".5" y=".5" width="107" height="48" rx="5"/><text id="Content" fill-rule="nonzero" font-family="RobotoMonoForPowerline-Bold, Roboto Mono for Powerline" font-size="21" font-weight="bold" letter-spacing=".35" fill="#413C40">
                            <tspan x="13.008" y="31.315">OSD</tspan>
                        </text></g></g><g id="harddisk" transform="translate(14 95)" fill="#413C40" fill-rule="nonzero"><path d="M2.5 0h15A2.5 2.5 0 0 1 20 2.5v20a2.5 2.5 0 0 1-2.5 2.5h-15A2.5 2.5 0 0 1 0 22.5v-20A2.5 2.5 0 0 1 2.5 0M10 2.273c-4.248 0-7.692 3.392-7.692 7.575 0 4.18 3.448 7.576 7.82 7.576L9 14.61a1.265 1.265 0 0 1 .474-1.73l1.103-.632a1.306 1.306 0 0 1 1.756.468l2.462 3.055c1.77-1.389 2.897-3.523 2.897-5.922 0-4.183-3.444-7.575-7.692-7.575m.385 6.818c.637 0 1.153.509 1.153 1.136 0 .628-.516 1.137-1.153 1.137a1.145 1.145 0 0 1-1.154-1.137c0-.627.516-1.136 1.154-1.136M3.462 20.455c-.638 0-1.154.508-1.154 1.136 0 .628.516 1.136 1.154 1.136.637 0 1.153-.508 1.153-1.136 0-.628-.516-1.136-1.153-1.136M10 14.248l3.016 7.722 3.138-1.836-5.112-6.498-1.042.612Z" id="Shape"/></g><g id="Group" transform="translate(-11.5 29)" stroke="#C7E6FF" stroke-width="2"><g id="arrows/3" transform="rotate(90 35.5 6.5)"><path id="Line" stroke-linecap="square" d="M1 6.5h68.826"/><circle id="Oval-R" fill="#C7E6FF" cx="67.5" cy="6.5" r="2.5"/><circle id="Oval-L" fill="#C7E6FF" cx="3.5" cy="6.5" r="2.5"/></g></g></g><g id="Group-2-Copy-6" transform="translate(456 437.5)"><g id="Group" transform="translate(-29.5 107.5)"><g id="tiles/color4/notitle" transform="rotate(-90 54 24.5)"><rect id="Rectangle-7" stroke="#F4E8F0" fill="#CABDC6" x=".5" y=".5" width="107" height="48" rx="5"/><text id="Content" fill-rule="nonzero" font-family="RobotoMonoForPowerline-Bold, Roboto Mono for Powerline" font-size="21" font-weight="bold" letter-spacing=".35" fill="#413C40">
                            <tspan x="13.008" y="31.315">OSD</tspan>
                        </text></g></g><g id="harddisk" transform="translate(14 95)" fill="#413C40" fill-rule="nonzero"><path d="M2.5 0h15A2.5 2.5 0 0 1 20 2.5v20a2.5 2.5 0 0 1-2.5 2.5h-15A2.5 2.5 0 0 1 0 22.5v-20A2.5 2.5 0 0 1 2.5 0M10 2.273c-4.248 0-7.692 3.392-7.692 7.575 0 4.18 3.448 7.576 7.82 7.576L9 14.61a1.265 1.265 0 0 1 .474-1.73l1.103-.632a1.306 1.306 0 0 1 1.756.468l2.462 3.055c1.77-1.389 2.897-3.523 2.897-5.922 0-4.183-3.444-7.575-7.692-7.575m.385 6.818c.637 0 1.153.509 1.153 1.136 0 .628-.516 1.137-1.153 1.137a1.145 1.145 0 0 1-1.154-1.137c0-.627.516-1.136 1.154-1.136M3.462 20.455c-.638 0-1.154.508-1.154 1.136 0 .628.516 1.136 1.154 1.136.637 0 1.153-.508 1.153-1.136 0-.628-.516-1.136-1.153-1.136M10 14.248l3.016 7.722 3.138-1.836-5.112-6.498-1.042.612Z" id="Shape"/></g><g id="Group" transform="translate(-11.5 29)" stroke="#C7E6FF" stroke-width="2"><g id="arrows/3" transform="rotate(90 35.5 6.5)"><path id="Line" stroke-linecap="square" d="M1 6.5h68.826"/><circle id="Oval-R" fill="#C7E6FF" cx="67.5" cy="6.5" r="2.5"/><circle id="Oval-L" fill="#C7E6FF" cx="3.5" cy="6.5" r="2.5"/></g></g></g><g id="tiles/color5"><rect id="Rectangle-7" stroke="#C1E3F5" fill="#486878" x=".492" y=".5" width="352" height="102" rx="5"/><text id="Tilte" fill-rule="nonzero" font-family="Roboto-Bold, Roboto" font-size="21" font-weight="bold" letter-spacing=".3" fill="#0C1114">
                    <tspan x="104.933" y="31.517">Object Storage</tspan>
                </text><g id="tiles/color5/content" transform="translate(1 47)"><path d="M0 0h351v49.998A5.002 5.002 0 0 1 346.004 55H4.996A5 5 0 0 1 0 49.998V0Z" id="Rectangle-7" fill="#7CB3D0"/><text id="Content" fill-rule="nonzero" font-family="Roboto-Bold, Roboto" font-size="18" font-weight="bold" letter-spacing=".3" fill="#1B2A32">
                        <tspan x="123.255" y="32.984">Applications</tspan>
                    </text></g></g><g id="tiles/color5" transform="translate(405)"><rect id="Rectangle-7" stroke="#C1E3F5" fill="#486878" x=".492" y=".5" width="226" height="102" rx="5"/><text id="Tilte" fill-rule="nonzero" font-family="Roboto-Bold, Roboto" font-size="21" font-weight="bold" letter-spacing=".3" fill="#0C1114">
                    <tspan x="46.165" y="31.517">Block Storage</tspan>
                </text><g id="tiles/color5/content" transform="translate(1 47)"><path d="M0 0h225v49.998A5.006 5.006 0 0 1 219.998 55H5.002A5.003 5.003 0 0 1 0 49.998V0Z" id="Rectangle-7" fill="#7CB3D0"/><text id="Content" fill-rule="nonzero" font-family="Roboto-Bold, Roboto" font-size="18" font-weight="bold" letter-spacing=".3" fill="#1B2A32">
                        <tspan x="70.43" y="32.984">VM / Host</tspan>
                    </text></g></g><g id="tiles/color5" transform="translate(684)"><rect id="Rectangle-7" stroke="#C1E3F5" fill="#486878" x=".492" y=".5" width="226" height="102" rx="5"/><text id="Tilte" fill-rule="nonzero" font-family="Roboto-Bold, Roboto" font-size="21" font-weight="bold" letter-spacing=".3" fill="#0C1114">
                    <tspan x="57.298" y="31.517">File System</tspan>
                </text><g id="tiles/color5/content" transform="translate(1 47)"><path d="M0 0h225v49.998A5.006 5.006 0 0 1 219.998 55H5.002A5.003 5.003 0 0 1 0 49.998V0Z" id="Rectangle-7" fill="#7CB3D0"/><text id="Content" fill-rule="nonzero" font-family="Roboto-Bold, Roboto" font-size="18" font-weight="bold" letter-spacing=".3" fill="#1B2A32">
                        <tspan x="88.001" y="32.984">Client</tspan>
                    </text></g></g><g id="tiles/color3" transform="translate(0 329)"><rect id="Rectangle-7" stroke="#EA8434" fill="#743E14" x=".492" y=".5" width="910" height="101" rx="5"/><text id="Tilte" fill-rule="nonzero" font-family="Roboto-Bold, Roboto" font-size="21" font-weight="bold" letter-spacing=".3" fill="#0F0803">
                    <tspan x="408.323" y="31.517">LIBRADOS</tspan>
                </text><g id="tiles/color3/content" transform="translate(1 47)"><path d="M0 0h909v48.992A5.004 5.004 0 0 1 904 54H5a5 5 0 0 1-5-5.008V0Z" id="Rectangle-7" fill="#BE6A27"/><text id="Content" fill-rule="nonzero" font-family="Roboto-Bold, Roboto" font-size="18" font-weight="bold" letter-spacing=".3" fill="#42240D">
                        <tspan x="386.587" y="32.503">RADOS Protocol</tspan>
                    </text></g></g><g id="Group" transform="translate(494 127)" stroke="#C7E6FF" stroke-width="2"><g id="arrows/3" transform="rotate(90 24 6.5)"><path id="Line" stroke-linecap="square" d="M1 6.5h45.884"/><circle id="Oval-R" fill="#C7E6FF" cx="44.5" cy="6.5" r="2.5"/><circle id="Oval-L" fill="#C7E6FF" cx="3.5" cy="6.5" r="2.5"/></g></g><g id="Group" transform="translate(774 127)" stroke="#C7E6FF" stroke-width="2"><g id="arrows/3" transform="rotate(90 24 6.5)"><path id="Line" stroke-linecap="square" d="M1 6.5h45.884"/><circle id="Oval-R" fill="#C7E6FF" cx="44.5" cy="6.5" r="2.5"/><circle id="Oval-L" fill="#C7E6FF" cx="3.5" cy="6.5" r="2.5"/></g></g><g id="Group" transform="translate(209 127)" stroke="#C7E6FF" stroke-width="2"><g id="arrows/3" transform="rotate(90 24 6.5)"><path id="Line" stroke-linecap="square" d="M1 6.5h45.884"/><circle id="Oval-R" fill="#C7E6FF" cx="44.5" cy="6.5" r="2.5"/><circle id="Oval-L" fill="#C7E6FF" cx="3.5" cy="6.5" r="2.5"/></g></g><g id="Group" transform="translate(209 291)" stroke="#C7E6FF" stroke-width="2"><g id="arrows/3" transform="rotate(90 24 6.5)"><path id="Line" stroke-linecap="square" d="M1 6.5h45.884"/><circle id="Oval-R" fill="#C7E6FF" cx="44.5" cy="6.5" r="2.5"/><circle id="Oval-L" fill="#C7E6FF" cx="3.5" cy="6.5" r="2.5"/></g></g><g id="Group" transform="translate(589 439.5)"><g transform="rotate(90 15.75 15.75)" id="arrows/3" stroke="#C7E6FF" stroke-width="2"><path id="Line" stroke-linecap="square" d="M1 6.5h45.884"/><circle id="Oval-R" fill="#C7E6FF" cx="44.5" cy="6.5" r="2.5"/><circle id="Oval-L" fill="#C7E6FF" cx="3.5" cy="6.5" r="2.5"/></g><g transform="rotate(-90 93 93)" id="tiles/color2/notitle"><text id="Content" fill-rule="nonzero" font-family="RobotoMonoForPowerline-Bold, Roboto Mono for Powerline" font-size="18" font-weight="bold" letter-spacing=".3" fill="#243D3D">
                            <tspan x="26.652" y="30.095">Content</tspan>
                        </text><rect id="Rectangle-7" stroke="#8BE5E2" fill="#5FA7A5" x=".5" y=".5" width="130" height="48" rx="5"/><text id="Content-Copy" fill-rule="nonzero" font-family="Roboto-Bold, Roboto" font-size="21" font-weight="bold" letter-spacing=".3" fill="#243D3D">
                            <tspan x="17.383" y="30.355">MONITOR</tspan>
                        </text></g></g><g id="Group-Copy" transform="translate(655 438.5)"><g id="Group" transform="translate(1 17.5)" stroke="#C7E6FF" stroke-width="2"><g id="arrows/3" transform="rotate(90 24 6.5)"><path id="Line" stroke-linecap="square" d="M1 6.5h45.884"/><circle id="Oval-R" fill="#C7E6FF" cx="44.5" cy="6.5" r="2.5"/><circle id="Oval-L" fill="#C7E6FF" cx="3.5" cy="6.5" r="2.5"/></g></g><g id="Group" transform="translate(-41 96)"><g id="tiles/color2/notitle" transform="rotate(-90 65.5 24.5)"><text id="Content" fill-rule="nonzero" font-family="RobotoMonoForPowerline-Bold, Roboto Mono for Powerline" font-size="18" font-weight="bold" letter-spacing=".3" fill="#243D3D">
                            <tspan x="26.652" y="30.095">Content</tspan>
                        </text><rect id="Rectangle-7" stroke="#8BE5E2" fill="#5FA7A5" x=".5" y=".5" width="130" height="48" rx="5"/><text id="Content-Copy" fill-rule="nonzero" font-family="Roboto-Bold, Roboto" font-size="21" font-weight="bold" letter-spacing=".3" fill="#243D3D">
                            <tspan x="17.383" y="30.355">MONITOR</tspan>
                        </text></g></g></g><g id="Group-Copy-2" transform="translate(721 438.5)"><g id="Group" transform="translate(1 17.5)" stroke="#C7E6FF" stroke-width="2"><g id="arrows/3" transform="rotate(90 24 6.5)"><path id="Line" stroke-linecap="square" d="M1 6.5h45.884"/><circle id="Oval-R" fill="#C7E6FF" cx="44.5" cy="6.5" r="2.5"/><circle id="Oval-L" fill="#C7E6FF" cx="3.5" cy="6.5" r="2.5"/></g></g><g id="Group" transform="translate(-41 96)"><g id="tiles/color2/notitle" transform="rotate(-90 65.5 24.5)"><text id="Content" fill-rule="nonzero" font-family="RobotoMonoForPowerline-Bold, Roboto Mono for Powerline" font-size="18" font-weight="bold" letter-spacing=".3" fill="#243D3D">
                            <tspan x="26.652" y="30.095">Content</tspan>
                        </text><rect id="Rectangle-7" stroke="#8BE5E2" fill="#5FA7A5" x=".5" y=".5" width="130" height="48" rx="5"/><text id="Content-Copy" fill-rule="nonzero" font-family="Roboto-Bold, Roboto" font-size="21" font-weight="bold" letter-spacing=".3" fill="#243D3D">
                            <tspan x="17.383" y="30.355">MONITOR</tspan>
                        </text></g></g></g><g id="Group-Copy-3" transform="translate(787 438.5)"><g id="Group" transform="translate(1 17.5)" stroke="#C7E6FF" stroke-width="2"><g id="arrows/3" transform="rotate(90 24 6.5)"><path id="Line" stroke-linecap="square" d="M1 6.5h45.884"/><circle id="Oval-R" fill="#C7E6FF" cx="44.5" cy="6.5" r="2.5"/><circle id="Oval-L" fill="#C7E6FF" cx="3.5" cy="6.5" r="2.5"/></g></g><g id="Group" transform="translate(-41 96)"><g id="tiles/color2/notitle" transform="rotate(-90 65.5 24.5)"><text id="Content" fill-rule="nonzero" font-family="RobotoMonoForPowerline-Bold, Roboto Mono for Powerline" font-size="18" font-weight="bold" letter-spacing=".3" fill="#243D3D">
                            <tspan x="26.652" y="30.095">Content</tspan>
                        </text><rect id="Rectangle-7" stroke="#8BE5E2" fill="#5FA7A5" x=".5" y=".5" width="130" height="48" rx="5"/><text id="Content-Copy" fill-rule="nonzero" font-family="Roboto-Bold, Roboto" font-size="21" font-weight="bold" letter-spacing=".3" fill="#243D3D">
                            <tspan x="17.383" y="30.355">MONITOR</tspan>
                        </text></g></g></g><g id="Group" transform="translate(495 291)" stroke="#C7E6FF" stroke-width="2"><g id="arrows/3" transform="rotate(90 24 6.5)"><path id="Line" stroke-linecap="square" d="M1 6.5h45.884"/><circle id="Oval-R" fill="#C7E6FF" cx="44.5" cy="6.5" r="2.5"/><circle id="Oval-L" fill="#C7E6FF" cx="3.5" cy="6.5" r="2.5"/></g></g><g id="Group" transform="translate(774 291)" stroke="#C7E6FF" stroke-width="2"><g id="arrows/3" transform="rotate(90 24 6.5)"><path id="Line" stroke-linecap="square" d="M1 6.5h45.884"/><circle id="Oval-R" fill="#C7E6FF" cx="44.5" cy="6.5" r="2.5"/><circle id="Oval-L" fill="#C7E6FF" cx="3.5" cy="6.5" r="2.5"/></g></g><g id="Group" transform="translate(-52.5 209.5)" stroke="#C7E6FF" stroke-width="2"><g id="arrows/3" transform="rotate(90 106.5 6.5)"><path id="Line" stroke-linecap="square" d="M1 6.5h210.467"/><circle id="Oval-R" fill="#C7E6FF" cx="209.5" cy="6.5" r="2.5"/><circle id="Oval-L" fill="#C7E6FF" cx="3.5" cy="6.5" r="2.5"/></g></g></g></g></svg>