<svg width="866" height="570" xmlns="http://www.w3.org/2000/svg"><g id="Schemas" stroke="none" stroke-width="1" fill="none" fill-rule="evenodd"><path id="Background-Copy" fill="#0E1320" d="M-325-126h1499v963H-325z"/><g id="Group-4" transform="translate(.492 .5)"><g id="tiles/blue" transform="translate(463.508 466.5)"><rect id="Rectangle-7" stroke="#29AFFF" fill="#115984" x=".492" y=".5" width="335" height="101" rx="5"/><g id="Content" transform="translate(-.008 46.9)"><path d="M0 0h334v48.992A5.006 5.006 0 0 1 329.003 54H4.997A4.998 4.998 0 0 1 0 48.992V0Z" id="Rectangle-7" fill="#1978B1"/><text fill-rule="nonzero" font-family="Roboto-Bold, Roboto" font-size="18" font-weight="bold" letter-spacing=".3" fill="#0A273E">
                        <tspan x="93.69" y="32.503">Module RBD/NDB</tspan>
                    </text></g><text id="Tilte" fill-rule="nonzero" font-family="Roboto-Bold, Roboto" font-size="21" font-weight="bold" letter-spacing=".3" fill="#031522">
                    <tspan x="135.311" y="31.517">Kernel</tspan>
                </text></g><rect id="Rectangle-7" stroke="#C1E3F5" x=".5" y=".5" width="351" height="185" rx="5"/><text id="Tilte" fill-rule="nonzero" font-family="RobotoMonoForPowerline-Bold, Roboto Mono for Powerline" font-size="21" font-weight="bold" letter-spacing=".3" fill="#ADCCDD">
                <tspan x="157.151" y="37.517">POD</tspan>
            </text><rect id="Rectangle-7" stroke="#C1E3F5" x="405.5" y=".5" width="458" height="185" rx="5"/><text id="Tilte" fill-rule="nonzero" font-family="RobotoMonoForPowerline-Bold, Roboto Mono for Powerline" font-size="21" font-weight="bold" letter-spacing=".3" fill="#ADCCDD">
                <tspan x="615.651" y="37.517">POD</tspan>
            </text><g id="tiles/color3" transform="translate(51.508 467)"><rect id="Rectangle-7" stroke="#EA8434" fill="#743E14" x=".492" y=".5" width="335" height="101" rx="5"/><text id="Tilte" fill-rule="nonzero" font-family="Roboto-Bold, Roboto" font-size="21" font-weight="bold" letter-spacing=".3" fill="#0F0803">
                    <tspan x="118.447" y="31.517">LIBRADOS</tspan>
                </text><g id="tiles/color3/content" transform="translate(1 47)"><path d="M0 0h334v48.992A5.006 5.006 0 0 1 329.003 54H4.997A4.998 4.998 0 0 1 0 48.992V0Z" id="Rectangle-7" fill="#BE6A27"/><text id="Content" fill-rule="nonzero" font-family="Roboto-Bold, Roboto" font-size="18" font-weight="bold" letter-spacing=".3" fill="#42240D">
                        <tspan x="99.087" y="32.503">RADOS Protocol</tspan>
                    </text></g></g><g id="Group" transform="translate(490.508 249)" stroke="#C7E6FF" stroke-width="2"><g id="arrows/3" transform="rotate(90 39 6.5)"><path id="Line" stroke-linecap="square" d="M1 6.5h75.808"/><circle id="Oval-R" fill="#C7E6FF" cx="74.5" cy="6.5" r="2.5"/><circle id="Oval-L" fill="#C7E6FF" cx="3.5" cy="6.5" r="2.5"/></g></g><g id="Group" transform="translate(129.508 249)" stroke="#C7E6FF" stroke-width="2"><g id="arrows/3" transform="rotate(90 39 6.5)"><path id="Line" stroke-linecap="square" d="M1 6.5h75.808"/><circle id="Oval-R" fill="#C7E6FF" cx="74.5" cy="6.5" r="2.5"/><circle id="Oval-L" fill="#C7E6FF" cx="3.5" cy="6.5" r="2.5"/></g></g><g id="Group" transform="translate(694.508 249)" stroke="#C7E6FF" stroke-width="2"><g id="arrows/3" transform="rotate(90 39 6.5)"><path id="Line" stroke-linecap="square" d="M1 6.5h75.808"/><circle id="Oval-R" fill="#C7E6FF" cx="74.5" cy="6.5" r="2.5"/><circle id="Oval-L" fill="#C7E6FF" cx="3.5" cy="6.5" r="2.5"/></g></g><g id="Group" transform="translate(607.008 428.5)" stroke="#C7E6FF" stroke-width="2"><g id="arrows/3" transform="rotate(90 24.5 6.5)"><path id="Line" stroke-linecap="square" d="M1 6.5h46.881"/><circle id="Oval-R" fill="#C7E6FF" cx="45.5" cy="6.5" r="2.5"/><circle id="Oval-L" fill="#C7E6FF" cx="3.5" cy="6.5" r="2.5"/></g></g><g id="Group" transform="translate(394.508 511)" stroke="#C7E6FF" stroke-width="2"><g id="arrows/3" transform="rotate(-180 31 6.5)"><path id="Line" stroke-linecap="square" d="M1 6.5h59.848"/><circle id="Oval-R" fill="#C7E6FF" cx="58.5" cy="6.5" r="2.5"/><circle id="Oval-L" fill="#C7E6FF" cx="3.5" cy="6.5" r="2.5"/></g></g><g id="tiles/color2" transform="translate(1.508 301.5)"><rect id="Rectangle-7" stroke="#8BE5E2" fill="#386362" x=".492" y=".5" width="863" height="101" rx="5"/><text id="Tilte" fill-rule="nonzero" font-family="Roboto-Bold, Roboto" font-size="21" font-weight="bold" letter-spacing=".3" fill="#121F1E">
                    <tspan x="376.978" y="31.517">Kubernetes</tspan>
                </text><g id="tiles/color2/content" transform="translate(1 47)"><path d="M0 0h862v48.992A5 5 0 0 1 856.992 54H5.008A5.003 5.003 0 0 1 0 48.992V0Z" id="Rectangle-7" fill="#5FA7A5"/><text id="Content" fill-rule="nonzero" font-family="Roboto-Bold, Roboto" font-size="18" font-weight="bold" letter-spacing=".3" fill="#243D3D">
                        <tspan x="365.218" y="32.503">Ceph CSI Driver</tspan>
                    </text></g></g><g id="tiles/color4/notitle-copy-3" transform="translate(432.508 71.5)"><rect id="Rectangle-7" stroke="#F4E8F0" fill="#CABDC6" x=".5" y=".5" width="87" height="75" rx="5"/><text id="Content" fill-rule="nonzero" font-family="Roboto-Bold, Roboto" font-size="21" font-weight="bold" letter-spacing=".35" fill="#413C40">
                    <tspan x="22.373" y="44.714">APP</tspan>
                </text></g><g id="tiles/color4/notitle-copy-3" transform="translate(26.508 71.5)"><rect id="Rectangle-7" stroke="#F4E8F0" fill="#CABDC6" x=".5" y=".5" width="87" height="75" rx="5"/><text id="Content" fill-rule="nonzero" font-family="Roboto-Bold, Roboto" font-size="21" font-weight="bold" letter-spacing=".35" fill="#413C40">
                    <tspan x="22.373" y="44.714">APP</tspan>
                </text></g><g id="tiles/color4/notitle-copy-3" transform="translate(642.508 71.5)"><rect id="Rectangle-7" stroke="#F4E8F0" fill="#CABDC6" x=".5" y=".5" width="87" height="75" rx="5"/><text id="Content" fill-rule="nonzero" font-family="Roboto-Bold, Roboto" font-size="21" font-weight="bold" letter-spacing=".35" fill="#413C40">
                    <tspan x="22.373" y="44.714">APP</tspan>
                </text></g><g id="tiles/color4/notitle-copy-3" transform="translate(236.508 71.5)"><rect id="Rectangle-7" stroke="#F4E8F0" fill="#CABDC6" x=".5" y=".5" width="87" height="75" rx="5"/><text id="Content" fill-rule="nonzero" font-family="Roboto-Bold, Roboto" font-size="21" font-weight="bold" letter-spacing=".35" fill="#413C40">
                    <tspan x="22.373" y="44.714">APP</tspan>
                </text></g><g id="tiles/color4/notitle-copy-3" transform="translate(537.508 71.5)"><rect id="Rectangle-7" stroke="#F4E8F0" fill="#CABDC6" x=".5" y=".5" width="87" height="75" rx="5"/><text id="Content" fill-rule="nonzero" font-family="Roboto-Bold, Roboto" font-size="21" font-weight="bold" letter-spacing=".35" fill="#413C40">
                    <tspan x="17.584" y="44.714">VREF</tspan>
                </text></g><g id="tiles/color4/notitle-copy-3" transform="translate(131.508 71.5)"><rect id="Rectangle-7" stroke="#F4E8F0" fill="#CABDC6" x=".5" y=".5" width="87" height="75" rx="5"/><text id="Content" fill-rule="nonzero" font-family="Roboto-Bold, Roboto" font-size="21" font-weight="bold" letter-spacing=".35" fill="#413C40">
                    <tspan x="17.584" y="44.714">VREF</tspan>
                </text></g><g id="tiles/color4/notitle-copy-3" transform="translate(747.508 71.5)"><rect id="Rectangle-7" stroke="#F4E8F0" fill="#CABDC6" x=".5" y=".5" width="87" height="75" rx="5"/><text id="Content" fill-rule="nonzero" font-family="Roboto-Bold, Roboto" font-size="21" font-weight="bold" letter-spacing=".35" fill="#413C40">
                    <tspan x="17.584" y="44.714">VREF</tspan>
                </text></g><g id="tiles/color5/notitle-copy" transform="translate(433.508 162.5)"><rect id="Rectangle-7" stroke="#C1E3F5" fill="#7CB3D0" x=".5" y=".5" width="191" height="45" rx="5"/><text id="Content" fill-rule="nonzero" font-family="Roboto-Bold, Roboto" font-size="21" font-weight="bold" letter-spacing=".3" fill="#1B2A32">
                    <tspan x="28.445" y="29.827">Volume Claim</tspan>
                </text></g><g id="tiles/color5/notitle-copy-2" transform="translate(27.508 162.5)"><rect id="Rectangle-7" stroke="#C1E3F5" fill="#7CB3D0" x=".5" y=".5" width="296" height="45" rx="5"/><text id="Content" fill-rule="nonzero" font-family="Roboto-Bold, Roboto" font-size="21" font-weight="bold" letter-spacing=".3" fill="#1B2A32">
                    <tspan x="80.945" y="29.827">Volume Claim</tspan>
                </text></g><g id="tiles/color5/notitle-copy" transform="translate(643.508 162.5)"><rect id="Rectangle-7" stroke="#C1E3F5" fill="#7CB3D0" x=".5" y=".5" width="191" height="45" rx="5"/><text id="Content" fill-rule="nonzero" font-family="Roboto-Bold, Roboto" font-size="21" font-weight="bold" letter-spacing=".3" fill="#1B2A32">
                    <tspan x="28.445" y="29.827">Volume Claim</tspan>
                </text></g></g></g></svg>