<?xml version="1.0" encoding="UTF-8"?>
<svg width="761px" height="461px" viewBox="0 0 761 461" version="1.1" xmlns="http://www.w3.org/2000/svg" xmlns:xlink="http://www.w3.org/1999/xlink">
    <title>pool</title>
    <g id="Schemas" stroke="none" stroke-width="1" fill="none" fill-rule="evenodd">
        <rect id="background" fill="#0E1320" x="-360" y="-1612" width="1499" height="2876"></rect>
        <g id="Group-5" transform="translate(-0.000000, 0.000000)">
            <g id="tiles/blue" transform="translate(416.000000, 180.000000)">
                <rect id="Rectangle-7" stroke="#29AFFF" fill="#115984" x="0.491735537" y="0.5" width="226" height="101" rx="5"></rect>
                <g id="Content" transform="translate(-0.008264, 46.900662)">
                    <path d="M0,0 L225,0 L225,48.9924762 C225,51.7580552 222.75488,54 219.998424,54 L5.00157638,54 C2.23928202,54 0,51.7654791 0,48.9924762 L0,0 Z" id="Rectangle-7" fill="#1978B1"></path>
                    <text fill-rule="nonzero" font-family="Roboto-Bold, Roboto" font-size="18" font-weight="bold" letter-spacing="0.300000046" fill="#0A273E">
                        <tspan x="40.2577758" y="32.5025321">Placement Group</tspan>
                    </text>
                </g>
                <text id="Tilte" fill-rule="nonzero" font-family="Roboto-Bold, Roboto" font-size="21" font-weight="bold" letter-spacing="0.3" fill="#031522">
                    <tspan x="89.3826292" y="31.5165563">PG 2</tspan>
                </text>
            </g>
            <g id="tiles/color5/notitle" transform="translate(427.000000, 0.000000)">
                <rect id="Rectangle-7" stroke="#C1E3F5" fill="#7CB3D0" x="0.5" y="0.5" width="98" height="45" rx="5"></rect>
                <text id="Content" fill-rule="nonzero" font-family="Roboto-Bold, Roboto" font-size="21" font-weight="bold" letter-spacing="0.3" fill="#1B2A32">
                    <tspan x="18.0208621" y="29.8267757">Object</tspan>
                </text>
            </g>
            <g id="tiles/color5/notitle" transform="translate(544.000000, 0.000000)">
                <rect id="Rectangle-7" stroke="#C1E3F5" fill="#7CB3D0" x="0.5" y="0.5" width="98" height="45" rx="5"></rect>
                <text id="Content" fill-rule="nonzero" font-family="Roboto-Bold, Roboto" font-size="21" font-weight="bold" letter-spacing="0.3" fill="#1B2A32">
                    <tspan x="18.0208621" y="29.8267757">Object</tspan>
                </text>
            </g>
            <g id="tiles/color5/notitle" transform="translate(661.000000, 0.000000)">
                <rect id="Rectangle-7" stroke="#C1E3F5" fill="#7CB3D0" x="0.5" y="0.5" width="98" height="45" rx="5"></rect>
                <text id="Content" fill-rule="nonzero" font-family="Roboto-Bold, Roboto" font-size="21" font-weight="bold" letter-spacing="0.3" fill="#1B2A32">
                    <tspan x="18.0208621" y="29.8267757">Object</tspan>
                </text>
            </g>
            <g id="Group" transform="translate(473.000000, 52.000000)" stroke="#C7E6FF">
                <g id="arrows/arrow-4.1" transform="translate(59.500000, 61.000000) rotate(-90.000000) translate(-59.500000, -61.000000) ">
                    <g id="arrow-4.1" transform="translate(0.983471, 0.968254)">
                        <path d="M117.033058,3 L69.9996645,3 C64.4770023,3 60,7.47142407 60,12.9974775 L60,107.066015 C60,112.587469 64.4752884,117.063492 69.9996645,117.063492 L117.033058,117.063492" id="Path-4" stroke-width="2"></path>
                        <circle id="Oval--Copy-3" fill="#C7E6FF" cx="114.033058" cy="117.063492" r="3"></circle>
                        <line x1="60.5227575" y1="60.031746" x2="1.00416659" y2="60.031746" id="Path-5" stroke-width="2"></line>
                        <polygon id="Triangle-2-Copy-2" fill="#C7E6FF" stroke-linejoin="round" transform="translate(1.500000, 60.031746) rotate(-180.000000) translate(-1.500000, -60.031746) " points="0 63.031746 0 57.031746 3 60.031746"></polygon>
                        <circle id="Oval--Copy-3" fill="#C7E6FF" cx="114.033058" cy="3" r="3"></circle>
                    </g>
                </g>
            </g>
            <g id="Group" transform="translate(317.500000, 183.500000)" stroke="#C7E6FF">
                <g id="arrows/arrow-4.1" transform="translate(59.500000, 163.500000) rotate(-90.000000) translate(-59.500000, -163.500000) ">
                    <g id="arrow-4.1" transform="translate(0.983471, 2.595238)">
                        <path d="M117.033058,3 L69.9996645,3 C64.4770023,3 60,7.479515 60,12.9951609 L60,308.814363 C60,314.334538 64.4752884,318.809524 69.9996645,318.809524 L117.033058,318.809524" id="Path-4" stroke-width="2"></path>
                        <circle id="Oval--Copy-3" fill="#C7E6FF" cx="114.033058" cy="318.809524" r="3"></circle>
                        <line x1="60.5227575" y1="160.904762" x2="1.00416659" y2="160.904762" id="Path-5" stroke-width="2"></line>
                        <polygon id="Triangle-2-Copy-2" fill="#C7E6FF" stroke-linejoin="round" transform="translate(1.500000, 160.904762) rotate(-180.000000) translate(-1.500000, -160.904762) " points="0 163.904762 0 157.904762 3 160.904762"></polygon>
                        <circle id="Oval--Copy-3" fill="#C7E6FF" cx="114.033058" cy="3" r="3"></circle>
                    </g>
                </g>
            </g>
            <g id="Group" transform="translate(600.000000, 3.000000)" stroke="#C7E6FF" stroke-width="2">
                <g id="arrows/arrow-2.1" transform="translate(30.000000, 80.000000) rotate(-90.000000) translate(-30.000000, -80.000000) ">
                    <g id="arrow-2.1" transform="translate(1.463415, 0.000000)">
                        <path d="M0,0 L3.51894247e-15,145.46935 C3.65242095e-15,150.987209 4.47652212,155.460317 10.0024211,155.460317 L57.0487805,155.460317" id="Path-2"></path>
                        <circle id="Oval-R" fill="#C7E6FF" cx="55.5487805" cy="154.960317" r="2.5"></circle>
                    </g>
                </g>
            </g>
            <g id="tiles/color5/notitle">
                <rect id="Rectangle-7" stroke="#C1E3F5" fill="#7CB3D0" x="0.5" y="0.5" width="98" height="45" rx="5"></rect>
                <text id="Content" fill-rule="nonzero" font-family="Roboto-Bold, Roboto" font-size="21" font-weight="bold" letter-spacing="0.3" fill="#1B2A32">
                    <tspan x="18.0208621" y="29.8267757">Object</tspan>
                </text>
            </g>
            <g id="Group" transform="translate(94.000000, 3.000000)" stroke="#C7E6FF" stroke-width="2">
                <g id="arrows/arrow-2.1" transform="translate(30.000000, 80.000000) scale(-1, 1) rotate(-90.000000) translate(-30.000000, -80.000000) ">
                    <g id="arrow-2.1" transform="translate(1.463415, 0.000000)">
                        <path d="M0,0 L3.51894247e-15,145.46935 C3.65242095e-15,150.987209 4.47652212,155.460317 10.0024211,155.460317 L57.0487805,155.460317" id="Path-2"></path>
                        <circle id="Oval-R" fill="#C7E6FF" cx="55.5487805" cy="154.960317" r="2.5"></circle>
                    </g>
                </g>
            </g>
            <g id="tiles/blue" transform="translate(106.000000, 180.000000)">
                <rect id="Rectangle-7" stroke="#29AFFF" fill="#115984" x="0.491735537" y="0.5" width="226" height="101" rx="5"></rect>
                <g id="Content" transform="translate(-0.008264, 46.900662)">
                    <path d="M0,0 L225,0 L225,48.9924762 C225,51.7580552 222.75488,54 219.998424,54 L5.00157638,54 C2.23928202,54 0,51.7654791 0,48.9924762 L0,0 Z" id="Rectangle-7" fill="#1978B1"></path>
                    <text fill-rule="nonzero" font-family="Roboto-Bold, Roboto" font-size="18" font-weight="bold" letter-spacing="0.300000046" fill="#0A273E">
                        <tspan x="40.2577758" y="32.5025321">Placement Group</tspan>
                    </text>
                </g>
                <text id="Tilte" fill-rule="nonzero" font-family="Roboto-Bold, Roboto" font-size="21" font-weight="bold" letter-spacing="0.3" fill="#031522">
                    <tspan x="89.3826292" y="31.5165563">PG 1</tspan>
                </text>
            </g>
            <g id="tiles/color5/notitle" transform="translate(117.000000, 0.000000)">
                <rect id="Rectangle-7" stroke="#C1E3F5" fill="#7CB3D0" x="0.5" y="0.5" width="98" height="45" rx="5"></rect>
                <text id="Content" fill-rule="nonzero" font-family="Roboto-Bold, Roboto" font-size="21" font-weight="bold" letter-spacing="0.3" fill="#1B2A32">
                    <tspan x="18.0208621" y="29.8267757">Object</tspan>
                </text>
            </g>
            <g id="tiles/color5/notitle" transform="translate(234.000000, 0.000000)">
                <rect id="Rectangle-7" stroke="#C1E3F5" fill="#7CB3D0" x="0.5" y="0.5" width="98" height="45" rx="5"></rect>
                <text id="Content" fill-rule="nonzero" font-family="Roboto-Bold, Roboto" font-size="21" font-weight="bold" letter-spacing="0.3" fill="#1B2A32">
                    <tspan x="18.0208621" y="29.8267757">Object</tspan>
                </text>
            </g>
            <g id="Group" transform="translate(163.000000, 52.000000)" stroke="#C7E6FF">
                <g id="arrows/arrow-4.1" transform="translate(59.500000, 61.000000) rotate(-90.000000) translate(-59.500000, -61.000000) ">
                    <g id="arrow-4.1" transform="translate(0.983471, 0.968254)">
                        <path d="M117.033058,3 L69.9996645,3 C64.4770023,3 60,7.47142407 60,12.9974775 L60,107.066015 C60,112.587469 64.4752884,117.063492 69.9996645,117.063492 L117.033058,117.063492" id="Path-4" stroke-width="2"></path>
                        <circle id="Oval--Copy-3" fill="#C7E6FF" cx="114.033058" cy="117.063492" r="3"></circle>
                        <line x1="60.5227575" y1="60.031746" x2="1.00416659" y2="60.031746" id="Path-5" stroke-width="2"></line>
                        <polygon id="Triangle-2-Copy-2" fill="#C7E6FF" stroke-linejoin="round" transform="translate(1.500000, 60.031746) rotate(-180.000000) translate(-1.500000, -60.031746) " points="0 63.031746 0 57.031746 3 60.031746"></polygon>
                        <circle id="Oval--Copy-3" fill="#C7E6FF" cx="114.033058" cy="3" r="3"></circle>
                    </g>
                </g>
            </g>
            <g id="tiles/color2/notitle" transform="translate(249.000000, 414.000000)">
                <text id="Content" fill-rule="nonzero" font-family="RobotoMonoForPowerline-Bold, Roboto Mono for Powerline" font-size="18" font-weight="bold" letter-spacing="0.300000046" fill="#243D3D">
                    <tspan x="89.152112" y="29.1318335">Content</tspan>
                </text>
                <rect id="Rectangle-7" stroke="#8BE5E2" fill="#5FA7A5" x="0.5" y="0.5" width="255" height="46" rx="5"></rect>
                <text id="Content-Copy" fill-rule="nonzero" font-family="Roboto-Bold, Roboto" font-size="21" font-weight="bold" letter-spacing="0.3" fill="#243D3D">
                    <tspan x="106.044251" y="29.4014414">Pool</tspan>
                </text>
            </g>
        </g>
    </g>
</svg>