<?xml version="1.0" encoding="UTF-8"?>
<svg width="561px" height="177px" viewBox="0 0 561 177" version="1.1" xmlns="http://www.w3.org/2000/svg" xmlns:xlink="http://www.w3.org/1999/xlink">
    <title>Title</title>
    <defs>
        <path d="M72.864,51.624 C73.488,51.624 73.98,51.912 74.34,52.488 C74.7,53.064 74.88,53.856 74.88,54.864 C74.88,56.736 74.424,58.224 73.512,59.328 C71.208,62.112 68.88,64.26 66.528,65.772 C64.176,67.284 61.392,68.04 58.176,68.04 C54.624,68.04 51.72,66.996 49.464,64.908 C47.208,62.82 45.096,59.568 43.128,55.152 C41.688,51.984 40.5,49.62 39.564,48.06 C38.628,46.5 37.704,45.396 36.792,44.748 C35.88,44.1 34.728,43.704 33.336,43.56 L32.544,48.888 C31.536,55.752 29.58,60.696 26.676,63.72 C23.772,66.744 19.776,68.256 14.688,68.256 C11.376,68.256 8.436,67.452 5.868,65.844 C3.3,64.236 1.512,62.184 0.504,59.688 C0.168,58.824 0,57.888 0,56.88 C0,55.44 0.336,54.192 1.008,53.136 C1.68,52.08 2.544,51.552 3.6,51.552 C4.224,51.552 4.752,51.708 5.184,52.02 C5.616,52.332 6.024,52.872 6.408,53.64 C7.896,56.424 9.204,58.368 10.332,59.472 C11.46,60.576 12.864,61.128 14.544,61.128 C16.464,61.128 18.108,60.252 19.476,58.5 C20.844,56.748 21.816,54.048 22.392,50.4 L23.4,43.56 L22.248,43.56 C21.144,43.56 20.28,43.248 19.656,42.624 C19.032,42 18.72,41.136 18.72,40.032 C18.72,38.784 19.044,37.788 19.692,37.044 C20.34,36.3 21.144,35.928 22.104,35.928 L24.48,35.928 C24.816,33.576 25.056,31.944 25.2,31.032 L27.432,14.832 C26.184,14.688 25.008,14.616 23.904,14.616 C19.824,14.616 16.728,15.324 14.616,16.74 C12.504,18.156 11.448,20.184 11.448,22.824 C11.448,24.024 11.58,24.996 11.844,25.74 C12.108,26.484 12.456,27.312 12.888,28.224 C13.08,28.608 13.176,29.04 13.176,29.52 C13.176,30.576 12.684,31.5 11.7,32.292 C10.716,33.084 9.624,33.48 8.424,33.48 C6.888,33.48 5.76,32.808 5.04,31.464 C3.6,28.92 2.88,26.184 2.88,23.256 C2.88,20.232 3.708,17.472 5.364,14.976 C7.02,12.48 9.528,10.476 12.888,8.964 C16.248,7.452 20.4,6.696 25.344,6.696 C27.504,6.696 29.484,6.816 31.284,7.056 C33.084,7.296 35.064,7.752 37.224,8.424 C39.576,9.144 40.752,10.488 40.752,12.456 C40.752,15.096 39.624,16.416 37.368,16.416 L34.56,35.784 C40.176,35.208 44.748,32.796 48.276,28.548 C51.804,24.3 54.744,18.528 57.096,11.232 C57.528,9.888 58.26,8.856 59.292,8.136 C60.324,7.416 61.632,7.056 63.216,7.056 C64.56,7.056 65.604,7.356 66.348,7.956 C67.092,8.556 67.464,9.408 67.464,10.512 C67.464,10.848 67.368,11.4 67.176,12.168 C64.776,20.088 61.344,26.376 56.88,31.032 C52.416,35.688 47.544,38.784 42.264,40.32 C44.088,40.752 45.588,41.4 46.764,42.264 C47.94,43.128 48.936,44.196 49.752,45.468 C50.568,46.74 51.504,48.504 52.56,50.76 C54.048,53.928 55.44,56.172 56.736,57.492 C58.032,58.812 59.544,59.472 61.272,59.472 C62.808,59.472 64.272,58.956 65.664,57.924 C67.056,56.892 68.808,55.128 70.92,52.632 C71.496,51.96 72.144,51.624 72.864,51.624 Z" id="path-1"></path>
        <filter x="-4.0%" y="-4.9%" width="108.0%" height="109.7%" filterUnits="objectBoundingBox" id="filter-2">
            <feOffset dx="0" dy="0" in="SourceAlpha" result="shadowOffsetOuter1"></feOffset>
            <feGaussianBlur stdDeviation="1" in="shadowOffsetOuter1" result="shadowBlurOuter1"></feGaussianBlur>
            <feColorMatrix values="0 0 0 0 0   0 0 0 0 0   0 0 0 0 0  0 0 0 0.5 0" type="matrix" in="shadowBlurOuter1"></feColorMatrix>
        </filter>
        <path d="M76.392,68.04 C74.232,68.04 72.468,67.044 71.1,65.052 C69.732,63.06 69.048,60.576 69.048,57.6 C69.048,54 69.288,50.7 69.768,47.7 C70.248,44.7 71.04,41.52 72.144,38.16 C72.624,36.72 73.296,35.688 74.16,35.064 C75.024,34.44 76.392,34.128 78.264,34.128 C79.32,34.128 80.052,34.296 80.46,34.632 C80.868,34.968 81.072,35.472 81.072,36.144 C81.072,36.528 80.808,37.824 80.28,40.032 C79.8,41.808 79.416,43.416 79.128,44.856 C78.168,49.896 77.688,53.256 77.688,54.936 C77.688,55.944 77.808,56.652 78.048,57.06 C78.288,57.468 78.672,57.672 79.2,57.672 C79.92,57.672 80.82,56.952 81.9,55.512 C82.98,54.072 84.132,51.888 85.356,48.96 C86.58,46.032 87.768,42.432 88.92,38.16 C89.304,36.72 89.892,35.688 90.684,35.064 C91.476,34.44 92.664,34.128 94.248,34.128 C95.352,34.128 96.12,34.26 96.552,34.524 C96.984,34.788 97.2,35.28 97.2,36 C97.2,37.2 96.6,40.488 95.4,45.864 C94.056,52.008 93.384,55.8 93.384,57.24 C93.384,58.152 93.576,58.86 93.96,59.364 C94.344,59.868 94.848,60.12 95.472,60.12 C96.432,60.12 97.572,59.532 98.892,58.356 C100.212,57.18 101.976,55.272 104.184,52.632 C104.76,51.96 105.408,51.624 106.128,51.624 C106.752,51.624 107.244,51.912 107.604,52.488 C107.964,53.064 108.144,53.856 108.144,54.864 C108.144,56.784 107.688,58.272 106.776,59.328 C104.712,61.872 102.492,63.96 100.116,65.592 C97.74,67.224 95.04,68.04 92.016,68.04 C89.712,68.04 88.02,67.152 86.94,65.376 C85.86,63.6 85.32,61.104 85.32,57.888 C84.504,61.152 83.28,63.66 81.648,65.412 C80.016,67.164 78.264,68.04 76.392,68.04 Z" id="path-3"></path>
        <filter x="-7.7%" y="-8.8%" width="115.3%" height="117.7%" filterUnits="objectBoundingBox" id="filter-4">
            <feOffset dx="0" dy="0" in="SourceAlpha" result="shadowOffsetOuter1"></feOffset>
            <feGaussianBlur stdDeviation="1" in="shadowOffsetOuter1" result="shadowBlurOuter1"></feGaussianBlur>
            <feColorMatrix values="0 0 0 0 0   0 0 0 0 0   0 0 0 0 0  0 0 0 0.5 0" type="matrix" in="shadowBlurOuter1"></feColorMatrix>
        </filter>
        <path d="M140.616,45.576 C141.24,45.576 141.72,45.888 142.056,46.512 C142.392,47.136 142.56,47.928 142.56,48.888 C142.56,50.088 142.392,51.012 142.056,51.66 C141.72,52.308 141.192,52.752 140.472,52.992 C137.592,54 134.424,54.576 130.968,54.72 C130.008,58.704 128.196,61.92 125.532,64.368 C122.868,66.816 119.928,68.04 116.712,68.04 C111.864,68.04 108.336,66.192 106.128,62.496 C103.92,58.8 102.816,53.448 102.816,46.44 C102.816,40.248 103.584,33.516 105.12,26.244 C106.656,18.972 108.9,12.78 111.852,7.668 C114.804,2.556 118.32,0 122.4,0 C124.608,0 126.384,0.948 127.728,2.844 C129.072,4.74 129.744,7.2 129.744,10.224 C129.744,14.16 129,18.072 127.512,21.96 C126.024,25.848 123.552,29.928 120.096,34.2 C123.312,34.44 125.928,35.772 127.944,38.196 C129.96,40.62 131.16,43.608 131.544,47.16 C133.8,47.016 136.488,46.536 139.608,45.72 C139.896,45.624 140.232,45.576 140.616,45.576 Z M120.744,7.128 C119.784,7.128 118.74,8.556 117.612,11.412 C116.484,14.268 115.44,18.144 114.48,23.04 C113.52,27.936 112.8,33.288 112.32,39.096 C115.488,33.288 118.02,28.164 119.916,23.724 C121.812,19.284 122.76,15.336 122.76,11.88 C122.76,10.344 122.58,9.168 122.22,8.352 C121.86,7.536 121.368,7.128 120.744,7.128 Z M117,60.408 C118.488,60.408 119.808,59.784 120.96,58.536 C122.112,57.288 122.88,55.488 123.264,53.136 C121.776,52.128 120.636,50.808 119.844,49.176 C119.052,47.544 118.656,45.816 118.656,43.992 C118.656,43.32 118.752,42.408 118.944,41.256 L118.728,41.256 C116.76,41.256 115.116,42.228 113.796,44.172 C112.476,46.116 111.816,48.72 111.816,51.984 C111.816,54.72 112.332,56.808 113.364,58.248 C114.396,59.688 115.608,60.408 117,60.408 Z" id="path-5"></path>
        <filter x="-7.5%" y="-4.4%" width="115.1%" height="108.8%" filterUnits="objectBoundingBox" id="filter-6">
            <feOffset dx="0" dy="0" in="SourceAlpha" result="shadowOffsetOuter1"></feOffset>
            <feGaussianBlur stdDeviation="1" in="shadowOffsetOuter1" result="shadowBlurOuter1"></feGaussianBlur>
            <feColorMatrix values="0 0 0 0 0   0 0 0 0 0   0 0 0 0 0  0 0 0 0.5 0" type="matrix" in="shadowBlurOuter1"></feColorMatrix>
        </filter>
        <path d="M168.48,51.624 C169.104,51.624 169.596,51.912 169.956,52.488 C170.316,53.064 170.496,53.856 170.496,54.864 C170.496,56.784 170.04,58.272 169.128,59.328 C167.352,61.488 164.844,63.48 161.604,65.304 C158.364,67.128 154.896,68.04 151.2,68.04 C146.16,68.04 142.248,66.672 139.464,63.936 C136.68,61.2 135.288,57.456 135.288,52.704 C135.288,49.392 135.984,46.308 137.376,43.452 C138.768,40.596 140.7,38.328 143.172,36.648 C145.644,34.968 148.44,34.128 151.56,34.128 C154.344,34.128 156.576,34.956 158.256,36.612 C159.936,38.268 160.776,40.512 160.776,43.344 C160.776,46.656 159.588,49.5 157.212,51.876 C154.836,54.252 150.816,56.136 145.152,57.528 C146.352,59.736 148.632,60.84 151.992,60.84 C154.152,60.84 156.612,60.084 159.372,58.572 C162.132,57.06 164.52,55.08 166.536,52.632 C167.112,51.96 167.76,51.624 168.48,51.624 Z M150.336,41.184 C148.56,41.184 147.06,42.216 145.836,44.28 C144.612,46.344 144,48.84 144,51.768 L144,51.912 C146.832,51.24 149.064,50.232 150.696,48.888 C152.328,47.544 153.144,45.984 153.144,44.208 C153.144,43.296 152.892,42.564 152.388,42.012 C151.884,41.46 151.2,41.184 150.336,41.184 Z" id="path-7"></path>
        <filter x="-8.5%" y="-8.8%" width="117.0%" height="117.7%" filterUnits="objectBoundingBox" id="filter-8">
            <feOffset dx="0" dy="0" in="SourceAlpha" result="shadowOffsetOuter1"></feOffset>
            <feGaussianBlur stdDeviation="1" in="shadowOffsetOuter1" result="shadowBlurOuter1"></feGaussianBlur>
            <feColorMatrix values="0 0 0 0 0   0 0 0 0 0   0 0 0 0 0  0 0 0 0.5 0" type="matrix" in="shadowBlurOuter1"></feColorMatrix>
        </filter>
        <path d="M169.776,68.04 C167.952,68.04 166.668,67.08 165.924,65.16 C165.18,63.24 164.808,60.168 164.808,55.944 C164.808,49.704 165.696,43.776 167.472,38.16 C167.904,36.768 168.612,35.748 169.596,35.1 C170.58,34.452 171.96,34.128 173.736,34.128 C174.696,34.128 175.368,34.248 175.752,34.488 C176.136,34.728 176.328,35.184 176.328,35.856 C176.328,36.624 175.968,38.352 175.248,41.04 C174.768,42.96 174.384,44.64 174.096,46.08 C173.808,47.52 173.568,49.296 173.376,51.408 C174.96,47.28 176.736,43.92 178.704,41.328 C180.672,38.736 182.604,36.888 184.5,35.784 C186.396,34.68 188.136,34.128 189.72,34.128 C192.84,34.128 194.4,35.688 194.4,38.808 C194.4,39.432 194.184,40.944 193.752,43.344 C193.368,45.264 193.176,46.464 193.176,46.944 C193.176,48.624 193.776,49.464 194.976,49.464 C196.32,49.464 198.048,48.408 200.16,46.296 C200.784,45.672 201.432,45.36 202.104,45.36 C202.728,45.36 203.22,45.636 203.58,46.188 C203.94,46.74 204.12,47.472 204.12,48.384 C204.12,50.16 203.64,51.552 202.68,52.56 C201.336,53.952 199.764,55.14 197.964,56.124 C196.164,57.108 194.256,57.6 192.24,57.6 C189.696,57.6 187.764,56.952 186.444,55.656 C185.124,54.36 184.464,52.608 184.464,50.4 C184.464,49.68 184.536,48.96 184.68,48.24 C184.776,47.28 184.824,46.632 184.824,46.296 C184.824,45.528 184.56,45.144 184.032,45.144 C183.312,45.144 182.364,45.948 181.188,47.556 C180.012,49.164 178.848,51.288 177.696,53.928 C176.544,56.568 175.608,59.352 174.888,62.28 C174.36,64.536 173.748,66.06 173.052,66.852 C172.356,67.644 171.264,68.04 169.776,68.04 Z" id="path-9"></path>
        <filter x="-7.6%" y="-8.8%" width="115.3%" height="117.7%" filterUnits="objectBoundingBox" id="filter-10">
            <feOffset dx="0" dy="0" in="SourceAlpha" result="shadowOffsetOuter1"></feOffset>
            <feGaussianBlur stdDeviation="1" in="shadowOffsetOuter1" result="shadowBlurOuter1"></feGaussianBlur>
            <feColorMatrix values="0 0 0 0 0   0 0 0 0 0   0 0 0 0 0  0 0 0 0.5 0" type="matrix" in="shadowBlurOuter1"></feColorMatrix>
        </filter>
        <path d="M202.536,68.04 C200.712,68.04 199.428,67.08 198.684,65.16 C197.94,63.24 197.568,60.168 197.568,55.944 C197.568,49.704 198.456,43.776 200.232,38.16 C200.664,36.768 201.372,35.748 202.356,35.1 C203.34,34.452 204.72,34.128 206.496,34.128 C207.456,34.128 208.128,34.248 208.512,34.488 C208.896,34.728 209.088,35.184 209.088,35.856 C209.088,36.624 208.728,38.352 208.008,41.04 C207.528,42.96 207.144,44.64 206.856,46.08 C206.568,47.52 206.328,49.296 206.136,51.408 C207.72,47.28 209.496,43.92 211.464,41.328 C213.432,38.736 215.364,36.888 217.26,35.784 C219.156,34.68 220.896,34.128 222.48,34.128 C225.6,34.128 227.16,35.688 227.16,38.808 C227.16,40.68 226.632,44.064 225.576,48.96 C224.664,53.136 224.208,55.896 224.208,57.24 C224.208,59.16 224.904,60.12 226.296,60.12 C227.256,60.12 228.396,59.532 229.716,58.356 C231.036,57.18 232.8,55.272 235.008,52.632 C235.584,51.96 236.232,51.624 236.952,51.624 C237.576,51.624 238.068,51.912 238.428,52.488 C238.788,53.064 238.968,53.856 238.968,54.864 C238.968,56.784 238.512,58.272 237.6,59.328 C235.536,61.872 233.316,63.96 230.94,65.592 C228.564,67.224 225.864,68.04 222.84,68.04 C220.392,68.04 218.544,67.332 217.296,65.916 C216.048,64.5 215.424,62.448 215.424,59.76 C215.424,58.416 215.76,56.016 216.432,52.56 C217.056,49.536 217.368,47.448 217.368,46.296 C217.368,45.528 217.104,45.144 216.576,45.144 C215.952,45.144 215.076,45.948 213.948,47.556 C212.82,49.164 211.668,51.288 210.492,53.928 C209.316,56.568 208.368,59.352 207.648,62.28 C207.12,64.536 206.508,66.06 205.812,66.852 C205.116,67.644 204.024,68.04 202.536,68.04 Z" id="path-11"></path>
        <filter x="-7.2%" y="-8.8%" width="114.5%" height="117.7%" filterUnits="objectBoundingBox" id="filter-12">
            <feOffset dx="0" dy="0" in="SourceAlpha" result="shadowOffsetOuter1"></feOffset>
            <feGaussianBlur stdDeviation="1" in="shadowOffsetOuter1" result="shadowBlurOuter1"></feGaussianBlur>
            <feColorMatrix values="0 0 0 0 0   0 0 0 0 0   0 0 0 0 0  0 0 0 0.5 0" type="matrix" in="shadowBlurOuter1"></feColorMatrix>
        </filter>
        <path d="M265.248,51.624 C265.872,51.624 266.364,51.912 266.724,52.488 C267.084,53.064 267.264,53.856 267.264,54.864 C267.264,56.784 266.808,58.272 265.896,59.328 C264.12,61.488 261.612,63.48 258.372,65.304 C255.132,67.128 251.664,68.04 247.968,68.04 C242.928,68.04 239.016,66.672 236.232,63.936 C233.448,61.2 232.056,57.456 232.056,52.704 C232.056,49.392 232.752,46.308 234.144,43.452 C235.536,40.596 237.468,38.328 239.94,36.648 C242.412,34.968 245.208,34.128 248.328,34.128 C251.112,34.128 253.344,34.956 255.024,36.612 C256.704,38.268 257.544,40.512 257.544,43.344 C257.544,46.656 256.356,49.5 253.98,51.876 C251.604,54.252 247.584,56.136 241.92,57.528 C243.12,59.736 245.4,60.84 248.76,60.84 C250.92,60.84 253.38,60.084 256.14,58.572 C258.9,57.06 261.288,55.08 263.304,52.632 C263.88,51.96 264.528,51.624 265.248,51.624 Z M247.104,41.184 C245.328,41.184 243.828,42.216 242.604,44.28 C241.38,46.344 240.768,48.84 240.768,51.768 L240.768,51.912 C243.6,51.24 245.832,50.232 247.464,48.888 C249.096,47.544 249.912,45.984 249.912,44.208 C249.912,43.296 249.66,42.564 249.156,42.012 C248.652,41.46 247.968,41.184 247.104,41.184 Z" id="path-13"></path>
        <filter x="-8.5%" y="-8.8%" width="117.0%" height="117.7%" filterUnits="objectBoundingBox" id="filter-14">
            <feOffset dx="0" dy="0" in="SourceAlpha" result="shadowOffsetOuter1"></feOffset>
            <feGaussianBlur stdDeviation="1" in="shadowOffsetOuter1" result="shadowBlurOuter1"></feGaussianBlur>
            <feColorMatrix values="0 0 0 0 0   0 0 0 0 0   0 0 0 0 0  0 0 0 0.5 0" type="matrix" in="shadowBlurOuter1"></feColorMatrix>
        </filter>
        <path d="M293.544,51.624 C294.168,51.624 294.66,51.912 295.02,52.488 C295.38,53.064 295.56,53.856 295.56,54.864 C295.56,56.784 295.104,58.272 294.192,59.328 C292.128,61.872 289.872,63.96 287.424,65.592 C284.976,67.224 282.168,68.04 279,68.04 C269.208,68.04 264.312,61.152 264.312,47.376 C264.312,45.264 264.384,43.128 264.528,40.968 L261.72,40.968 C260.28,40.968 259.308,40.704 258.804,40.176 C258.3,39.648 258.048,38.808 258.048,37.656 C258.048,34.968 259.128,33.624 261.288,33.624 L265.392,33.624 C266.208,28.344 267.456,23.52 269.136,19.152 C270.816,14.784 272.844,11.304 275.22,8.712 C277.596,6.12 280.152,4.824 282.888,4.824 C284.904,4.824 286.488,5.712 287.64,7.488 C288.792,9.264 289.368,11.496 289.368,14.184 C289.368,21.624 286.248,28.104 280.008,33.624 L288.072,33.624 C288.84,33.624 289.392,33.792 289.728,34.128 C290.064,34.464 290.232,35.088 290.232,36 C290.232,39.312 287.52,40.968 282.096,40.968 L273.312,40.968 C273.216,43.368 273.168,45.24 273.168,46.584 C273.168,51.576 273.756,55.08 274.932,57.096 C276.108,59.112 277.968,60.12 280.512,60.12 C282.576,60.12 284.4,59.496 285.984,58.248 C287.568,57 289.44,55.128 291.6,52.632 C292.176,51.96 292.824,51.624 293.544,51.624 Z M280.944,11.736 C280.224,11.736 279.42,12.636 278.532,14.436 C277.644,16.236 276.804,18.732 276.012,21.924 C275.22,25.116 274.56,28.656 274.032,32.544 C276.864,30.096 278.988,27.348 280.404,24.3 C281.82,21.252 282.528,18.48 282.528,15.984 C282.528,13.152 282,11.736 280.944,11.736 Z" id="path-15"></path>
        <filter x="-8.0%" y="-4.7%" width="116.0%" height="109.5%" filterUnits="objectBoundingBox" id="filter-16">
            <feOffset dx="0" dy="0" in="SourceAlpha" result="shadowOffsetOuter1"></feOffset>
            <feGaussianBlur stdDeviation="1" in="shadowOffsetOuter1" result="shadowBlurOuter1"></feGaussianBlur>
            <feColorMatrix values="0 0 0 0 0   0 0 0 0 0   0 0 0 0 0  0 0 0 0.5 0" type="matrix" in="shadowBlurOuter1"></feColorMatrix>
        </filter>
        <path d="M321.84,51.624 C322.464,51.624 322.956,51.912 323.316,52.488 C323.676,53.064 323.856,53.856 323.856,54.864 C323.856,56.784 323.4,58.272 322.488,59.328 C320.712,61.488 318.204,63.48 314.964,65.304 C311.724,67.128 308.256,68.04 304.56,68.04 C299.52,68.04 295.608,66.672 292.824,63.936 C290.04,61.2 288.648,57.456 288.648,52.704 C288.648,49.392 289.344,46.308 290.736,43.452 C292.128,40.596 294.06,38.328 296.532,36.648 C299.004,34.968 301.8,34.128 304.92,34.128 C307.704,34.128 309.936,34.956 311.616,36.612 C313.296,38.268 314.136,40.512 314.136,43.344 C314.136,46.656 312.948,49.5 310.572,51.876 C308.196,54.252 304.176,56.136 298.512,57.528 C299.712,59.736 301.992,60.84 305.352,60.84 C307.512,60.84 309.972,60.084 312.732,58.572 C315.492,57.06 317.88,55.08 319.896,52.632 C320.472,51.96 321.12,51.624 321.84,51.624 Z M303.696,41.184 C301.92,41.184 300.42,42.216 299.196,44.28 C297.972,46.344 297.36,48.84 297.36,51.768 L297.36,51.912 C300.192,51.24 302.424,50.232 304.056,48.888 C305.688,47.544 306.504,45.984 306.504,44.208 C306.504,43.296 306.252,42.564 305.748,42.012 C305.244,41.46 304.56,41.184 303.696,41.184 Z" id="path-17"></path>
        <filter x="-8.5%" y="-8.8%" width="117.0%" height="117.7%" filterUnits="objectBoundingBox" id="filter-18">
            <feOffset dx="0" dy="0" in="SourceAlpha" result="shadowOffsetOuter1"></feOffset>
            <feGaussianBlur stdDeviation="1" in="shadowOffsetOuter1" result="shadowBlurOuter1"></feGaussianBlur>
            <feColorMatrix values="0 0 0 0 0   0 0 0 0 0   0 0 0 0 0  0 0 0 0.5 0" type="matrix" in="shadowBlurOuter1"></feColorMatrix>
        </filter>
        <path d="M331.416,69.624 C328.92,69.624 327.012,69.048 325.692,67.896 C324.372,66.744 323.712,65.448 323.712,64.008 C323.712,62.76 324.168,61.68 325.08,60.768 C325.992,59.856 327.336,59.4 329.112,59.4 C329.736,59.4 330.468,59.46 331.308,59.58 C332.148,59.7 332.784,59.784 333.216,59.832 C333.168,58.584 332.892,57.408 332.388,56.304 C331.884,55.2 331.248,54.132 330.48,53.1 C329.712,52.068 328.992,51.168 328.32,50.4 C326.832,53.232 325.356,55.584 323.892,57.456 C322.428,59.328 320.832,61.104 319.104,62.784 C318.24,63.648 317.328,64.08 316.368,64.08 C315.6,64.08 314.976,63.804 314.496,63.252 C314.016,62.7 313.776,62.016 313.776,61.2 C313.776,60.24 314.112,59.352 314.784,58.536 L315.72,57.384 C318.36,54.12 320.352,51.432 321.696,49.32 C322.56,47.928 323.436,46.272 324.324,44.352 C325.212,42.432 326.376,39.816 327.816,36.504 C328.728,34.392 330.624,33.336 333.504,33.336 C334.848,33.336 335.784,33.456 336.312,33.696 C336.84,33.936 337.104,34.32 337.104,34.848 C337.104,35.136 337.008,35.592 336.816,36.216 C336.624,36.84 336.36,37.464 336.024,38.088 C335.16,39.816 334.728,41.28 334.728,42.48 C334.728,43.2 334.98,43.992 335.484,44.856 C335.988,45.72 336.768,46.8 337.824,48.096 C339.36,50.112 340.524,51.828 341.316,53.244 C342.108,54.66 342.504,56.208 342.504,57.888 C342.504,59.904 342.036,61.812 341.1,63.612 C340.164,65.412 338.856,66.864 337.176,67.968 C335.496,69.072 333.576,69.624 331.416,69.624 Z" id="path-19"></path>
        <filter x="-10.4%" y="-8.3%" width="120.9%" height="116.5%" filterUnits="objectBoundingBox" id="filter-20">
            <feOffset dx="0" dy="0" in="SourceAlpha" result="shadowOffsetOuter1"></feOffset>
            <feGaussianBlur stdDeviation="1" in="shadowOffsetOuter1" result="shadowBlurOuter1"></feGaussianBlur>
            <feColorMatrix values="0 0 0 0 0   0 0 0 0 0   0 0 0 0 0  0 0 0 0.5 0" type="matrix" in="shadowBlurOuter1"></feColorMatrix>
        </filter>
    </defs>
    <g id="Intro" stroke="none" stroke-width="1" fill="none" fill-rule="evenodd">
        <g id="Title" transform="translate(2.872000, 2.320000)" fill-rule="nonzero">
            <g id="Kubernetes">
                <g id="K">
                    <use fill="black" fill-opacity="1" filter="url(#filter-2)" xlink:href="#path-1"></use>
                    <use fill="#092F29" xlink:href="#path-1"></use>
                </g>
                <g id="u">
                    <use fill="black" fill-opacity="1" filter="url(#filter-4)" xlink:href="#path-3"></use>
                    <use fill="#092F29" xlink:href="#path-3"></use>
                </g>
                <g id="b">
                    <use fill="black" fill-opacity="1" filter="url(#filter-6)" xlink:href="#path-5"></use>
                    <use fill="#092F29" xlink:href="#path-5"></use>
                </g>
                <g id="e">
                    <use fill="black" fill-opacity="1" filter="url(#filter-8)" xlink:href="#path-7"></use>
                    <use fill="#092F29" xlink:href="#path-7"></use>
                </g>
                <g id="r">
                    <use fill="black" fill-opacity="1" filter="url(#filter-10)" xlink:href="#path-9"></use>
                    <use fill="#092F29" xlink:href="#path-9"></use>
                </g>
                <g id="n">
                    <use fill="black" fill-opacity="1" filter="url(#filter-12)" xlink:href="#path-11"></use>
                    <use fill="#092F29" xlink:href="#path-11"></use>
                </g>
                <g id="e">
                    <use fill="black" fill-opacity="1" filter="url(#filter-14)" xlink:href="#path-13"></use>
                    <use fill="#092F29" xlink:href="#path-13"></use>
                </g>
                <g id="t">
                    <use fill="black" fill-opacity="1" filter="url(#filter-16)" xlink:href="#path-15"></use>
                    <use fill="#092F29" xlink:href="#path-15"></use>
                </g>
                <g id="e">
                    <use fill="black" fill-opacity="1" filter="url(#filter-18)" xlink:href="#path-17"></use>
                    <use fill="#092F29" xlink:href="#path-17"></use>
                </g>
                <g id="s">
                    <use fill="black" fill-opacity="1" filter="url(#filter-20)" xlink:href="#path-19"></use>
                    <use fill="#092F29" xlink:href="#path-19"></use>
                </g>
            </g>
            <g id="Ceph" transform="translate(231.864000, 71.120000)" fill="#092F29">
                <path d="M28.786,69.93 C22.9153333,69.93 17.8093333,68.857 13.468,66.711 C9.12666667,64.565 5.79666667,61.5186667 3.478,57.572 C1.15933333,53.6253333 0,49.0373333 0,43.808 C0,36.556 1.369,30.118 4.107,24.494 C6.845,18.87 10.5573333,14.5163333 15.244,11.433 C19.9306667,8.34966667 25.1353333,6.808 30.858,6.808 C36.186,6.808 40.2313333,8.177 42.994,10.915 C45.7566667,13.653 47.138,17.2666667 47.138,21.756 C47.138,24.7653333 46.6076667,27.1826667 45.547,29.008 C44.4863333,30.8333333 42.9693333,31.746 40.996,31.746 C39.6146667,31.746 38.5293333,31.4253333 37.74,30.784 C36.9506667,30.1426667 36.556,29.2053333 36.556,27.972 C36.556,27.528 36.6546667,26.714 36.852,25.53 C37.148,24.05 37.296,22.866 37.296,21.978 C37.296,17.4886667 34.9033333,15.244 30.118,15.244 C26.862,15.244 23.754,16.3046667 20.794,18.426 C17.834,20.5473333 15.4413333,23.6676667 13.616,27.787 C11.7906667,31.9063333 10.878,36.8026667 10.878,42.476 C10.878,48.396 12.5306667,52.9716667 15.836,56.203 C19.1413333,59.4343333 24.0253333,61.05 30.488,61.05 C33.6946667,61.05 36.9383333,60.643 40.219,59.829 C43.4996667,59.015 47.138,57.7693333 51.134,56.092 C51.874,55.796 52.4906667,55.648 52.984,55.648 C53.7733333,55.648 54.3653333,55.944 54.76,56.536 C55.1546667,57.128 55.352,57.8926667 55.352,58.83 C55.352,61.8393333 53.724,64.0593333 50.468,65.49 C46.9653333,67.0193333 43.327,68.1416667 39.553,68.857 C35.779,69.5723333 32.19,69.93 28.786,69.93 Z" id="C"></path>
                <path d="M81.844,53.058 C82.4853333,53.058 82.991,53.354 83.361,53.946 C83.731,54.538 83.916,55.352 83.916,56.388 C83.916,58.3613333 83.4473333,59.8906667 82.51,60.976 C80.6846667,63.196 78.107,65.2433333 74.777,67.118 C71.447,68.9926667 67.8826667,69.93 64.084,69.93 C58.904,69.93 54.8833333,68.524 52.022,65.712 C49.1606667,62.9 47.73,59.052 47.73,54.168 C47.73,50.764 48.4453333,47.5943333 49.876,44.659 C51.3066667,41.7236667 53.2923333,39.3926667 55.833,37.666 C58.3736667,35.9393333 61.2473333,35.076 64.454,35.076 C67.3153333,35.076 69.6093333,35.927 71.336,37.629 C73.0626667,39.331 73.926,41.6373333 73.926,44.548 C73.926,47.952 72.705,50.875 70.263,53.317 C67.821,55.759 63.6893333,57.6953333 57.868,59.126 C59.1013333,61.3953333 61.4446667,62.53 64.898,62.53 C67.118,62.53 69.6463333,61.753 72.483,60.199 C75.3196667,58.645 77.774,56.61 79.846,54.094 C80.438,53.4033333 81.104,53.058 81.844,53.058 Z M63.196,42.328 C61.3706667,42.328 59.829,43.3886667 58.571,45.51 C57.313,47.6313333 56.684,50.1966667 56.684,53.206 L56.684,53.354 C59.5946667,52.6633333 61.8886667,51.6273333 63.566,50.246 C65.2433333,48.8646667 66.082,47.2613333 66.082,45.436 C66.082,44.4986667 65.823,43.7463333 65.305,43.179 C64.787,42.6116667 64.084,42.328 63.196,42.328 Z" id="e"></path>
                <path d="M118.918,53.058 C119.559333,53.058 120.065,53.354 120.435,53.946 C120.805,54.538 120.99,55.352 120.99,56.388 C120.99,58.3613333 120.521333,59.8906667 119.584,60.976 C117.462667,63.5906667 115.181,65.7366667 112.739,67.414 C110.297,69.0913333 107.522,69.93 104.414,69.93 C101.799333,69.93 99.678,68.9926667 98.05,67.118 C95.238,68.9433333 92.3026667,69.8806667 89.244,69.93 C88.6026667,79.4513333 87.1473333,87.4063333 84.878,93.795 C82.6086667,100.183667 79.2786667,103.378 74.888,103.378 C72.224,103.378 70.2506667,102.416 68.968,100.492 C67.6853333,98.568 67.044,95.904 67.044,92.5 C67.044,87.6653333 68.154,82.029 70.374,75.591 C72.594,69.153 76.0226667,62.0613333 80.66,54.316 C80.66,47.1133333 80.6106667,42.106 80.512,39.294 C80.4626667,37.8633333 81.03,36.7286667 82.214,35.89 C83.398,35.0513333 84.878,34.632 86.654,34.632 C87.69,34.632 88.4423333,34.8416667 88.911,35.261 C89.3796667,35.6803333 89.6386667,36.5066667 89.688,37.74 C89.688,38.9733333 89.7126667,39.886 89.762,40.478 C91.3406667,38.5046667 92.8946667,37.0863333 94.424,36.223 C95.9533333,35.3596667 97.5813333,34.928 99.308,34.928 C102.070667,34.928 104.327667,36.038 106.079,38.258 C107.830333,40.478 108.706,43.3886667 108.706,46.99 C108.706,49.6046667 108.286667,52.1453333 107.448,54.612 C106.609333,57.0786667 105.45,59.3233333 103.97,61.346 C105.006,61.642 105.869333,61.79 106.56,61.79 C108.188,61.79 109.742,61.198 111.222,60.014 C112.702,58.83 114.601333,56.8566667 116.92,54.094 C117.512,53.4033333 118.178,53.058 118.918,53.058 Z M89.614,62.826 C91.39,62.4313333 93.0303333,61.457 94.535,59.903 C96.0396667,58.349 97.236,56.425 98.124,54.131 C99.012,51.837 99.456,49.432 99.456,46.916 C99.456,45.436 99.16,44.3136667 98.568,43.549 C97.976,42.7843333 97.1866667,42.402 96.2,42.402 C94.424,42.402 92.278,44.2766667 89.762,48.026 C89.7126667,50.1966667 89.688,53.3786667 89.688,57.572 C89.688,59.8413333 89.6633333,61.5926667 89.614,62.826 Z M75.48,96.126 C76.812,96.126 77.922,93.2276667 78.81,87.431 C79.698,81.6343333 80.2653333,74.4193333 80.512,65.786 C78.3906667,70.7193333 76.7133333,75.4306667 75.48,79.92 C74.2466667,84.4093333 73.63,88.1833333 73.63,91.242 C73.63,92.8206667 73.815,94.0293333 74.185,94.868 C74.555,95.7066667 74.9866667,96.126 75.48,96.126 Z" id="p"></path>
                <path d="M141.192,35.076 C142.770667,35.076 143.967,35.483 144.781,36.297 C145.595,37.111 146.002,38.3073333 146.002,39.886 C146.002,41.1686667 145.730667,43.586 145.188,47.138 C144.694667,50.1473333 144.3,52.9963333 144.004,55.685 C143.708,58.3736667 143.56,61.3706667 143.56,64.676 C143.56,66.5506667 143.177667,67.895 142.413,68.709 C141.648333,69.523 140.402667,69.93 138.676,69.93 C137.048,69.93 135.864,69.5106667 135.124,68.672 C134.384,67.8333333 134.014,66.5753333 134.014,64.898 C134.014,62.9246667 134.359333,59.6686667 135.05,55.13 C135.642,51.1833333 135.938,48.6673333 135.938,47.582 C135.938,46.7926667 135.666667,46.398 135.124,46.398 C134.482667,46.398 133.57,47.2243333 132.386,48.877 C131.202,50.5296667 130.018,52.7126667 128.834,55.426 C127.65,58.1393333 126.688,61.0006667 125.948,64.01 C125.405333,66.3286667 124.776333,67.895 124.061,68.709 C123.345667,69.523 122.223333,69.93 120.694,69.93 C119.164667,69.93 118.042333,69.375 117.327,68.265 C116.611667,67.155 116.130667,65.4406667 115.884,63.122 C115.637333,60.8033333 115.514,57.3993333 115.514,52.91 C115.514,45.3126667 116.291,37.3946667 117.845,29.156 C119.399,20.9173333 121.693,13.9983333 124.727,8.399 C127.761,2.79966667 131.399333,0 135.642,0 C137.911333,0 139.749,0.974333333 141.155,2.923 C142.561,4.87166667 143.264,7.4 143.264,10.508 C143.264,15.4906667 141.808667,20.6583333 138.898,26.011 C135.987333,31.3636667 131.251333,37.6166667 124.69,44.77 C124.542,47.3353333 124.468,49.9746667 124.468,52.688 C126.096,48.4946667 127.909,45.0783333 129.907,42.439 C131.905,39.7996667 133.878333,37.9126667 135.827,36.778 C137.775667,35.6433333 139.564,35.076 141.192,35.076 Z M134.088,7.326 C133.2,7.326 132.213333,8.59633333 131.128,11.137 C130.042667,13.6776667 128.994333,17.1063333 127.983,21.423 C126.971667,25.7396667 126.145333,30.4386667 125.504,35.52 C128.562667,31.9186667 131.091,27.9966667 133.089,23.754 C135.087,19.5113333 136.086,15.6633333 136.086,12.21 C136.086,10.6313333 135.913333,9.42266667 135.568,8.584 C135.222667,7.74533333 134.729333,7.326 134.088,7.326 Z" id="h"></path>
            </g>
            <g id="And" opacity="0.911275228" transform="translate(147.144000, 97.840000)" fill="#092F29" fill-opacity="0.432077688">
                <path d="M8.784,34.02 C7.128,34.02 5.634,33.612 4.302,32.796 C2.97,31.98 1.92,30.798 1.152,29.25 C0.384,27.702 0,25.872 0,23.76 C0,20.112 0.78,16.734 2.34,13.626 C3.9,10.518 6.204,8.022 9.252,6.138 C12.3,4.254 15.96,3.312 20.232,3.312 C21.336,3.312 22.518,3.396 23.778,3.564 C25.038,3.732 26.184,3.984 27.216,4.32 C27.888,4.512 28.224,4.992 28.224,5.76 C28.224,6.384 27.99,6.972 27.522,7.524 C27.054,8.076 26.508,8.352 25.884,8.352 C25.692,8.352 25.548,8.34 25.452,8.316 C24.204,8.028 23.136,7.818 22.248,7.686 C21.36,7.554 20.424,7.488 19.44,7.488 C16.392,7.488 13.8,8.226 11.664,9.702 C9.528,11.178 7.932,13.128 6.876,15.552 C5.82,17.976 5.292,20.592 5.292,23.4 C5.292,25.44 5.694,27.018 6.498,28.134 C7.302,29.25 8.352,29.808 9.648,29.808 C11.112,29.808 12.396,29.208 13.5,28.008 C14.604,26.808 15.612,24.864 16.524,22.176 C17.436,19.488 18.336,15.84 19.224,11.232 C19.368,10.56 19.656,10.104 20.088,9.864 C20.52,9.624 21.096,9.504 21.816,9.504 C23.52,9.504 24.372,10.056 24.372,11.16 C24.372,11.352 24.336,11.592 24.264,11.88 C23.64,14.208 23.07,16.782 22.554,19.602 C22.038,22.422 21.78,24.564 21.78,26.028 C21.78,27.324 21.972,28.266 22.356,28.854 C22.74,29.442 23.328,29.736 24.12,29.736 C24.888,29.736 25.62,29.478 26.316,28.962 C27.012,28.446 27.888,27.564 28.944,26.316 C29.232,25.98 29.556,25.812 29.916,25.812 C30.228,25.812 30.474,25.956 30.654,26.244 C30.834,26.532 30.924,26.928 30.924,27.432 C30.924,28.368 30.696,29.112 30.24,29.664 C29.064,31.08 27.912,32.16 26.784,32.904 C25.656,33.648 24.276,34.02 22.644,34.02 C20.964,34.02 19.608,33.534 18.576,32.562 C17.544,31.59 16.896,30.216 16.632,28.44 C14.856,32.16 12.24,34.02 8.784,34.02 Z" id="A"></path>
                <path d="M30.564,34.02 C29.652,34.02 29.01,33.54 28.638,32.58 C28.266,31.62 28.08,30.084 28.08,27.972 C28.08,24.852 28.524,21.888 29.412,19.08 C29.628,18.384 29.982,17.874 30.474,17.55 C30.966,17.226 31.656,17.064 32.544,17.064 C33.024,17.064 33.36,17.124 33.552,17.244 C33.744,17.364 33.84,17.592 33.84,17.928 C33.84,18.312 33.66,19.176 33.3,20.52 C33.06,21.48 32.868,22.32 32.724,23.04 C32.58,23.76 32.46,24.648 32.364,25.704 C33.156,23.64 34.044,21.96 35.028,20.664 C36.012,19.368 36.978,18.444 37.926,17.892 C38.874,17.34 39.744,17.064 40.536,17.064 C42.096,17.064 42.876,17.844 42.876,19.404 C42.876,20.34 42.612,22.032 42.084,24.48 C41.628,26.568 41.4,27.948 41.4,28.62 C41.4,29.58 41.748,30.06 42.444,30.06 C42.924,30.06 43.494,29.766 44.154,29.178 C44.814,28.59 45.696,27.636 46.8,26.316 C47.088,25.98 47.412,25.812 47.772,25.812 C48.084,25.812 48.33,25.956 48.51,26.244 C48.69,26.532 48.78,26.928 48.78,27.432 C48.78,28.392 48.552,29.136 48.096,29.664 C47.064,30.936 45.954,31.98 44.766,32.796 C43.578,33.612 42.228,34.02 40.716,34.02 C39.492,34.02 38.568,33.666 37.944,32.958 C37.32,32.25 37.008,31.224 37.008,29.88 C37.008,29.208 37.176,28.008 37.512,26.28 C37.824,24.768 37.98,23.724 37.98,23.148 C37.98,22.764 37.848,22.572 37.584,22.572 C37.272,22.572 36.834,22.974 36.27,23.778 C35.706,24.582 35.13,25.644 34.542,26.964 C33.954,28.284 33.48,29.676 33.12,31.14 C32.856,32.268 32.55,33.03 32.202,33.426 C31.854,33.822 31.308,34.02 30.564,34.02 Z" id="n"></path>
                <path d="M58.968,25.812 C59.232,27.78 59.616,29.724 60.12,31.644 C60.216,31.956 60.264,32.28 60.264,32.616 C60.264,33.696 59.604,34.236 58.284,34.236 C57.54,34.236 56.97,34.032 56.574,33.624 C56.178,33.216 55.812,32.448 55.476,31.32 L55.44,31.176 C54.528,32.304 53.706,33.06 52.974,33.444 C52.242,33.828 51.396,34.02 50.436,34.02 C48.972,34.02 47.766,33.474 46.818,32.382 C45.87,31.29 45.396,29.868 45.396,28.116 C45.396,26.196 45.804,24.42 46.62,22.788 C47.436,21.156 48.552,19.818 49.968,18.774 C51.384,17.73 52.968,17.1 54.72,16.884 C55.176,12.348 56.046,8.4 57.33,5.04 C58.614,1.68 60.324,0 62.46,0 C63.492,0 64.35,0.468 65.034,1.404 C65.718,2.34 66.06,3.756 66.06,5.652 C66.06,8.292 65.412,11.376 64.116,14.904 C62.82,18.432 61.104,22.068 58.968,25.812 Z M62.064,3.528 C61.368,3.528 60.714,5.304 60.102,8.856 C59.49,12.408 59.076,16.272 58.86,20.448 C61.524,14.688 62.856,10.008 62.856,6.408 C62.856,5.496 62.778,4.788 62.622,4.284 C62.466,3.78 62.28,3.528 62.064,3.528 Z M51.696,30.384 C52.176,30.384 52.638,30.204 53.082,29.844 C53.526,29.484 54.096,28.788 54.792,27.756 C54.552,26.004 54.432,24.192 54.432,22.32 C54.432,21.576 54.444,21 54.468,20.592 C53.148,20.976 52.056,21.852 51.192,23.22 C50.328,24.588 49.896,26.1 49.896,27.756 C49.896,29.508 50.496,30.384 51.696,30.384 Z" id="d"></path>
            </g>
            <g id="the-story…" opacity="0.762176514" transform="translate(396.164000, 97.840000)" fill="#092F29" fill-opacity="0.432077688">
                <path d="M17.748,25.812 C18.06,25.812 18.306,25.956 18.486,26.244 C18.666,26.532 18.756,26.928 18.756,27.432 C18.756,28.392 18.528,29.136 18.072,29.664 C17.04,30.936 15.912,31.98 14.688,32.796 C13.464,33.612 12.06,34.02 10.476,34.02 C5.58,34.02 3.132,30.576 3.132,23.688 C3.132,22.632 3.168,21.564 3.24,20.484 L1.836,20.484 C1.116,20.484 0.63,20.352 0.378,20.088 C0.126,19.824 0,19.404 0,18.828 C0,17.484 0.54,16.812 1.62,16.812 L3.672,16.812 C4.08,14.172 4.704,11.76 5.544,9.576 C6.384,7.392 7.398,5.652 8.586,4.356 C9.774,3.06 11.052,2.412 12.42,2.412 C13.428,2.412 14.22,2.856 14.796,3.744 C15.372,4.632 15.66,5.748 15.66,7.092 C15.66,10.812 14.1,14.052 10.98,16.812 L15.012,16.812 C15.396,16.812 15.672,16.896 15.84,17.064 C16.008,17.232 16.092,17.544 16.092,18 C16.092,19.656 14.736,20.484 12.024,20.484 L7.632,20.484 C7.584,21.684 7.56,22.62 7.56,23.292 C7.56,25.788 7.854,27.54 8.442,28.548 C9.03,29.556 9.96,30.06 11.232,30.06 C12.264,30.06 13.176,29.748 13.968,29.124 C14.76,28.5 15.696,27.564 16.776,26.316 C17.064,25.98 17.388,25.812 17.748,25.812 Z M11.448,5.868 C11.088,5.868 10.686,6.318 10.242,7.218 C9.798,8.118 9.378,9.366 8.982,10.962 C8.586,12.558 8.256,14.328 7.992,16.272 C9.408,15.048 10.47,13.674 11.178,12.15 C11.886,10.626 12.24,9.24 12.24,7.992 C12.24,6.576 11.976,5.868 11.448,5.868 Z" id="t"></path>
                <path d="M35.82,25.812 C36.132,25.812 36.378,25.956 36.558,26.244 C36.738,26.532 36.828,26.928 36.828,27.432 C36.828,28.392 36.6,29.136 36.144,29.664 C35.04,30.936 33.906,31.98 32.742,32.796 C31.578,33.612 30.252,34.02 28.764,34.02 C27.54,34.02 26.616,33.666 25.992,32.958 C25.368,32.25 25.056,31.224 25.056,29.88 C25.056,29.208 25.224,28.008 25.56,26.28 C25.872,24.768 26.028,23.724 26.028,23.148 C26.028,22.764 25.896,22.572 25.632,22.572 C25.32,22.572 24.876,22.974 24.3,23.778 C23.724,24.582 23.148,25.644 22.572,26.964 C21.996,28.284 21.528,29.676 21.168,31.14 C20.712,33.06 19.584,34.02 17.784,34.02 C17.064,34.02 16.59,33.762 16.362,33.246 C16.134,32.73 16.02,31.8 16.02,30.456 C16.02,29.688 16.032,29.076 16.056,28.62 L16.092,25.74 C16.092,22.044 16.47,18.192 17.226,14.184 C17.982,10.176 19.098,6.81 20.574,4.086 C22.05,1.362 23.82,0 25.884,0 C26.988,0 27.882,0.474 28.566,1.422 C29.25,2.37 29.592,3.6 29.592,5.112 C29.592,7.536 28.884,10.05 27.468,12.654 C26.052,15.258 23.748,18.3 20.556,21.78 C20.484,23.028 20.448,24.312 20.448,25.632 C21.24,23.592 22.122,21.93 23.094,20.646 C24.066,19.362 25.026,18.444 25.974,17.892 C26.922,17.34 27.792,17.064 28.584,17.064 C30.144,17.064 30.924,17.844 30.924,19.404 C30.924,20.34 30.66,22.032 30.132,24.48 C29.676,26.568 29.448,27.948 29.448,28.62 C29.448,29.58 29.796,30.06 30.492,30.06 C30.972,30.06 31.542,29.766 32.202,29.178 C32.862,28.59 33.744,27.636 34.848,26.316 C35.136,25.98 35.46,25.812 35.82,25.812 Z M25.128,3.564 C24.696,3.564 24.216,4.182 23.688,5.418 C23.16,6.654 22.65,8.322 22.158,10.422 C21.666,12.522 21.264,14.808 20.952,17.28 C22.44,15.528 23.67,13.62 24.642,11.556 C25.614,9.492 26.1,7.62 26.1,5.94 C26.1,5.172 26.016,4.584 25.848,4.176 C25.68,3.768 25.44,3.564 25.128,3.564 Z" id="h"></path>
                <path d="M46.8,26.892 C47.112,26.892 47.358,27.036 47.538,27.324 C47.718,27.612 47.808,28.008 47.808,28.512 C47.808,29.376 47.604,30.12 47.196,30.744 C46.524,31.776 45.642,32.58 44.55,33.156 C43.458,33.732 42.156,34.02 40.644,34.02 C38.34,34.02 36.552,33.33 35.28,31.95 C34.008,30.57 33.372,28.704 33.372,26.352 C33.372,24.696 33.72,23.154 34.416,21.726 C35.112,20.298 36.078,19.164 37.314,18.324 C38.55,17.484 39.948,17.064 41.508,17.064 C42.9,17.064 44.016,17.478 44.856,18.306 C45.696,19.134 46.116,20.256 46.116,21.672 C46.116,23.328 45.522,24.75 44.334,25.938 C43.146,27.126 41.124,28.068 38.268,28.764 C38.844,29.868 39.816,30.42 41.184,30.42 C42.168,30.42 42.978,30.192 43.614,29.736 C44.25,29.28 44.988,28.512 45.828,27.432 C46.116,27.072 46.44,26.892 46.8,26.892 Z M40.896,20.592 C40.008,20.592 39.258,21.108 38.646,22.14 C38.034,23.172 37.728,24.42 37.728,25.884 L37.728,25.956 C39.144,25.62 40.26,25.116 41.076,24.444 C41.892,23.772 42.3,22.992 42.3,22.104 C42.3,21.648 42.174,21.282 41.922,21.006 C41.67,20.73 41.328,20.592 40.896,20.592 Z" id="e"></path>
                <path d="M64.944,34.812 C63.696,34.812 62.742,34.524 62.082,33.948 C61.422,33.372 61.092,32.724 61.092,32.004 C61.092,31.38 61.32,30.84 61.776,30.384 C62.232,29.928 62.904,29.7 63.792,29.7 C64.104,29.7 64.47,29.73 64.89,29.79 C65.31,29.85 65.628,29.892 65.844,29.916 C65.82,29.292 65.682,28.704 65.43,28.152 C65.178,27.6 64.86,27.066 64.476,26.55 C64.092,26.034 63.732,25.584 63.396,25.2 C62.652,26.616 61.914,27.792 61.182,28.728 C60.45,29.664 59.652,30.552 58.788,31.392 C58.356,31.824 57.9,32.04 57.42,32.04 C57.036,32.04 56.724,31.902 56.484,31.626 C56.244,31.35 56.124,31.008 56.124,30.6 C56.124,30.12 56.292,29.676 56.628,29.268 L57.096,28.692 C58.416,27.06 59.412,25.716 60.084,24.66 C60.492,23.964 60.972,23.034 61.524,21.87 C62.076,20.706 62.616,19.5 63.144,18.252 C63.6,17.196 64.548,16.668 65.988,16.668 C66.66,16.668 67.128,16.728 67.392,16.848 C67.656,16.968 67.788,17.16 67.788,17.424 C67.788,17.568 67.74,17.796 67.644,18.108 C67.548,18.42 67.416,18.732 67.248,19.044 C66.816,19.908 66.6,20.64 66.6,21.24 C66.6,21.6 66.726,21.996 66.978,22.428 C67.23,22.86 67.62,23.4 68.148,24.048 C68.916,25.056 69.498,25.914 69.894,26.622 C70.29,27.33 70.488,28.104 70.488,28.944 C70.488,29.184 70.464,29.52 70.416,29.952 C71.592,29.496 72.972,28.284 74.556,26.316 C74.844,25.98 75.168,25.812 75.528,25.812 C75.84,25.812 76.086,25.956 76.266,26.244 C76.446,26.532 76.536,26.928 76.536,27.432 C76.536,28.344 76.308,29.088 75.852,29.664 C74.652,31.152 73.506,32.166 72.414,32.706 C71.322,33.246 69.972,33.54 68.364,33.588 C67.404,34.404 66.264,34.812 64.944,34.812 Z" id="s"></path>
                <path d="M89.676,25.812 C89.988,25.812 90.234,25.956 90.414,26.244 C90.594,26.532 90.684,26.928 90.684,27.432 C90.684,28.392 90.456,29.136 90,29.664 C88.968,30.936 87.84,31.98 86.616,32.796 C85.392,33.612 83.988,34.02 82.404,34.02 C77.508,34.02 75.06,30.576 75.06,23.688 C75.06,22.632 75.096,21.564 75.168,20.484 L73.764,20.484 C73.044,20.484 72.558,20.352 72.306,20.088 C72.054,19.824 71.928,19.404 71.928,18.828 C71.928,17.484 72.468,16.812 73.548,16.812 L75.6,16.812 C76.008,14.172 76.632,11.76 77.472,9.576 C78.312,7.392 79.326,5.652 80.514,4.356 C81.702,3.06 82.98,2.412 84.348,2.412 C85.356,2.412 86.148,2.856 86.724,3.744 C87.3,4.632 87.588,5.748 87.588,7.092 C87.588,10.812 86.028,14.052 82.908,16.812 L86.94,16.812 C87.324,16.812 87.6,16.896 87.768,17.064 C87.936,17.232 88.02,17.544 88.02,18 C88.02,19.656 86.664,20.484 83.952,20.484 L79.56,20.484 C79.512,21.684 79.488,22.62 79.488,23.292 C79.488,25.788 79.782,27.54 80.37,28.548 C80.958,29.556 81.888,30.06 83.16,30.06 C84.192,30.06 85.104,29.748 85.896,29.124 C86.688,28.5 87.624,27.564 88.704,26.316 C88.992,25.98 89.316,25.812 89.676,25.812 Z M83.376,5.868 C83.016,5.868 82.614,6.318 82.17,7.218 C81.726,8.118 81.306,9.366 80.91,10.962 C80.514,12.558 80.184,14.328 79.92,16.272 C81.336,15.048 82.398,13.674 83.106,12.15 C83.814,10.626 84.168,9.24 84.168,7.992 C84.168,6.576 83.904,5.868 83.376,5.868 Z" id="t"></path>
                <path d="M106.128,22.788 C106.44,22.788 106.68,22.944 106.848,23.256 C107.016,23.568 107.1,23.964 107.1,24.444 C107.1,25.596 106.752,26.28 106.056,26.496 C104.616,27 103.032,27.288 101.304,27.36 C100.848,29.376 99.948,30.99 98.604,32.202 C97.26,33.414 95.736,34.02 94.032,34.02 C92.592,34.02 91.362,33.672 90.342,32.976 C89.322,32.28 88.548,31.356 88.02,30.204 C87.492,29.052 87.228,27.804 87.228,26.46 C87.228,24.636 87.576,23.01 88.272,21.582 C88.968,20.154 89.928,19.038 91.152,18.234 C92.376,17.43 93.732,17.028 95.22,17.028 C97.044,17.028 98.514,17.658 99.63,18.918 C100.746,20.178 101.4,21.732 101.592,23.58 C102.72,23.508 104.064,23.268 105.624,22.86 C105.816,22.812 105.984,22.788 106.128,22.788 Z M94.32,30.204 C95.088,30.204 95.754,29.892 96.318,29.268 C96.882,28.644 97.26,27.744 97.452,26.568 C96.708,26.064 96.138,25.404 95.742,24.588 C95.346,23.772 95.148,22.908 95.148,21.996 C95.148,21.612 95.184,21.228 95.256,20.844 L95.076,20.844 C94.116,20.844 93.318,21.306 92.682,22.23 C92.046,23.154 91.728,24.456 91.728,26.136 C91.728,27.456 91.986,28.464 92.502,29.16 C93.018,29.856 93.624,30.204 94.32,30.204 Z" id="o"></path>
                <path d="M106.56,34.02 C105.648,34.02 105.006,33.54 104.634,32.58 C104.262,31.62 104.076,30.084 104.076,27.972 C104.076,24.852 104.52,21.888 105.408,19.08 C105.624,18.384 105.978,17.874 106.47,17.55 C106.962,17.226 107.652,17.064 108.54,17.064 C109.02,17.064 109.356,17.124 109.548,17.244 C109.74,17.364 109.836,17.592 109.836,17.928 C109.836,18.312 109.656,19.176 109.296,20.52 C109.056,21.48 108.864,22.32 108.72,23.04 C108.576,23.76 108.456,24.648 108.36,25.704 C109.152,23.64 110.04,21.96 111.024,20.664 C112.008,19.368 112.974,18.444 113.922,17.892 C114.87,17.34 115.74,17.064 116.532,17.064 C118.092,17.064 118.872,17.844 118.872,19.404 C118.872,19.716 118.764,20.472 118.548,21.672 C118.356,22.632 118.26,23.232 118.26,23.472 C118.26,24.312 118.56,24.732 119.16,24.732 C119.832,24.732 120.696,24.204 121.752,23.148 C122.064,22.836 122.388,22.68 122.724,22.68 C123.036,22.68 123.282,22.818 123.462,23.094 C123.642,23.37 123.732,23.736 123.732,24.192 C123.732,25.08 123.492,25.776 123.012,26.28 C122.34,26.976 121.554,27.57 120.654,28.062 C119.754,28.554 118.8,28.8 117.792,28.8 C116.52,28.8 115.554,28.476 114.894,27.828 C114.234,27.18 113.904,26.304 113.904,25.2 C113.904,24.84 113.94,24.48 114.012,24.12 C114.06,23.64 114.084,23.316 114.084,23.148 C114.084,22.764 113.952,22.572 113.688,22.572 C113.328,22.572 112.854,22.974 112.266,23.778 C111.678,24.582 111.096,25.644 110.52,26.964 C109.944,28.284 109.476,29.676 109.116,31.14 C108.852,32.268 108.546,33.03 108.198,33.426 C107.85,33.822 107.304,34.02 106.56,34.02 Z" id="r"></path>
                <path d="M132.984,17.064 C133.536,17.064 133.92,17.136 134.136,17.28 C134.352,17.424 134.46,17.664 134.46,18 C134.46,18.576 134.148,20.628 133.524,24.156 C132.972,27.54 132.648,29.544 132.552,30.168 C131.664,36.336 130.44,41.22 128.88,44.82 C127.32,48.42 125.244,50.22 122.652,50.22 C121.428,50.22 120.432,49.842 119.664,49.086 C118.896,48.33 118.512,47.34 118.512,46.116 C118.512,44.988 118.77,43.836 119.286,42.66 C119.802,41.484 120.762,40.134 122.166,38.61 C123.57,37.086 125.556,35.34 128.124,33.372 L128.232,32.544 C128.4,31.656 128.592,30.384 128.808,28.728 C128.328,30.456 127.656,31.77 126.792,32.67 C125.928,33.57 125.016,34.02 124.056,34.02 C122.976,34.02 122.094,33.522 121.41,32.526 C120.726,31.53 120.384,30.288 120.384,28.8 C120.384,27 120.504,25.35 120.744,23.85 C120.984,22.35 121.38,20.76 121.932,19.08 C122.172,18.36 122.508,17.844 122.94,17.532 C123.372,17.22 124.056,17.064 124.992,17.064 C125.52,17.064 125.886,17.148 126.09,17.316 C126.294,17.484 126.396,17.736 126.396,18.072 C126.396,18.264 126.264,18.912 126,20.016 C125.76,20.904 125.568,21.708 125.424,22.428 C125.232,23.412 125.064,24.354 124.92,25.254 C124.776,26.154 124.704,26.892 124.704,27.468 C124.704,28.38 124.956,28.836 125.46,28.836 C125.82,28.836 126.27,28.476 126.81,27.756 C127.35,27.036 127.926,25.944 128.538,24.48 C129.15,23.016 129.744,21.216 130.32,19.08 C130.512,18.36 130.806,17.844 131.202,17.532 C131.598,17.22 132.192,17.064 132.984,17.064 Z M123.048,46.728 C123.648,46.728 124.32,46.032 125.064,44.64 C125.808,43.248 126.552,40.932 127.296,37.692 C125.448,39.252 124.11,40.674 123.282,41.958 C122.454,43.242 122.04,44.364 122.04,45.324 C122.04,45.732 122.118,46.068 122.274,46.332 C122.43,46.596 122.688,46.728 123.048,46.728 Z" id="y"></path>
                <path d="M148.392,34.02 C147.336,34.02 146.538,33.732 145.998,33.156 C145.458,32.58 145.188,31.824 145.188,30.888 C145.188,29.808 145.494,28.944 146.106,28.296 C146.718,27.648 147.576,27.324 148.68,27.324 C149.736,27.324 150.534,27.582 151.074,28.098 C151.614,28.614 151.884,29.376 151.884,30.384 C151.884,31.488 151.572,32.37 150.948,33.03 C150.324,33.69 149.472,34.02 148.392,34.02 Z M157.752,34.02 C156.696,34.02 155.898,33.732 155.358,33.156 C154.818,32.58 154.548,31.824 154.548,30.888 C154.548,29.808 154.854,28.944 155.466,28.296 C156.078,27.648 156.936,27.324 158.04,27.324 C159.096,27.324 159.894,27.582 160.434,28.098 C160.974,28.614 161.244,29.376 161.244,30.384 C161.244,31.488 160.932,32.37 160.308,33.03 C159.684,33.69 158.832,34.02 157.752,34.02 Z M139.032,34.02 C137.976,34.02 137.178,33.732 136.638,33.156 C136.098,32.58 135.828,31.824 135.828,30.888 C135.828,29.808 136.134,28.944 136.746,28.296 C137.358,27.648 138.216,27.324 139.32,27.324 C140.376,27.324 141.174,27.582 141.714,28.098 C142.254,28.614 142.524,29.376 142.524,30.384 C142.524,31.488 142.212,32.37 141.588,33.03 C140.964,33.69 140.112,34.02 139.032,34.02 Z" id="…"></path>
            </g>
        </g>
    </g>
</svg>